<?xml version="1.0" encoding="UTF-8" standalone="no"?>
<!-- Created with Inkscape (http://www.inkscape.org/) -->

<svg
   width="59.371643mm"
   height="58.940292mm"
   viewBox="0 0 59.371643 58.940292"
   version="1.1"
   id="svg5"
   xml:space="preserve"
   xmlns:inkscape="http://www.inkscape.org/namespaces/inkscape"
   xmlns:sodipodi="http://sodipodi.sourceforge.net/DTD/sodipodi-0.dtd"
   xmlns="http://www.w3.org/2000/svg"
   xmlns:svg="http://www.w3.org/2000/svg"><sodipodi:namedview
     id="namedview7"
     pagecolor="#ffffff"
     bordercolor="#666666"
     borderopacity="1.0"
     inkscape:showpageshadow="2"
     inkscape:pageopacity="0.0"
     inkscape:pagecheckerboard="0"
     inkscape:deskcolor="#d1d1d1"
     inkscape:document-units="mm"
     showgrid="false" /><defs
     id="defs2" /><g
     inkscape:label="Camada 1"
     inkscape:groupmode="layer"
     id="layer1"
     transform="translate(-150.62836,-144.89943)"><path
       style="fill:#f7abc2;fill-opacity:1;stroke-width:1"
       d="m 163.67699,203.52607 c -0.4192,-0.12552 -1.05559,-0.50224 -1.4142,-0.83716 -1.42474,-1.33062 -1.39549,-1.0048 -1.39549,-15.54476 0,-7.42879 -0.0927,-13.50689 -0.20608,-13.50689 -0.11334,0 -0.97655,0.78282 -1.91823,1.7396 -2.04342,2.07619 -2.76435,2.49373 -4.30571,2.49373 -2.36775,0 -4.11007,-2.05678 -3.76536,-4.44492 0.17671,-1.22421 0.38878,-1.45273 13.58796,-14.64169 13.01657,-13.00647 13.44772,-13.40711 14.7516,-13.70756 1.02896,-0.2371 1.64786,-0.23622 2.64584,0.004 1.24404,0.29914 1.90643,0.91634 14.71115,13.70756 13.20002,13.18611 13.41125,13.41365 13.58797,14.63794 0.34471,2.38814 -1.39762,4.44492 -3.76536,4.44492 -1.54136,0 -2.26229,-0.41754 -4.30572,-2.49373 -0.94168,-0.95678 -1.80488,-1.7396 -1.91823,-1.7396 -0.11334,0 -0.20608,6.11411 -0.20608,13.58691 v 13.58691 l -0.59531,0.8747 c -1.30278,1.91419 -1.50949,1.97225 -7.36083,2.06769 l -5.27302,0.086 v -6.32886 c 0,-5.79527 -0.0408,-6.36577 -0.48386,-6.76673 -0.41631,-0.37676 -1.22316,-0.43788 -5.77982,-0.43788 -4.79464,0 -5.33743,0.0458 -5.73386,0.48385 -0.3815,0.42155 -0.43788,1.29037 -0.43788,6.74688 V 203.8 l -4.82865,-0.0227 c -2.65575,-0.0125 -5.17163,-0.12544 -5.59083,-0.25095 z"
       id="path302"
       inkscape:export-filename="home.svg"
       inkscape:export-xdpi="96"
       inkscape:export-ydpi="96" /></g></svg>
