<?xml version="1.0" encoding="UTF-8" standalone="no"?>
<svg
   width="38.976562mm"
   height="37.911118mm"
   viewBox="0 0 38.976562 37.911118"
   version="1.1"
   id="svg8"
   inkscape:version="1.0.1 (3bc2e813f5, 2020-09-07)"
   sodipodi:docname="mockup.svg"
   xml:space="preserve"
   xmlns:inkscape="http://www.inkscape.org/namespaces/inkscape"
   xmlns:sodipodi="http://sodipodi.sourceforge.net/DTD/sodipodi-0.dtd"
   xmlns="http://www.w3.org/2000/svg"
   xmlns:svg="http://www.w3.org/2000/svg"
   xmlns:rdf="http://www.w3.org/1999/02/22-rdf-syntax-ns#"
   xmlns:cc="http://creativecommons.org/ns#"
   xmlns:dc="http://purl.org/dc/elements/1.1/"><defs
     id="defs2" /><sodipodi:namedview
     id="base"
     pagecolor="#ffffff"
     bordercolor="#666666"
     borderopacity="1.0"
     inkscape:pageopacity="0.0"
     inkscape:pageshadow="2"
     inkscape:zoom="0.074451581"
     inkscape:cx="-1223.9351"
     inkscape:cy="2167.0274"
     inkscape:document-units="mm"
     inkscape:current-layer="layer1"
     inkscape:document-rotation="0"
     showgrid="false"
     inkscape:snap-intersection-paths="false"
     inkscape:window-width="1366"
     inkscape:window-height="746"
     inkscape:window-x="-8"
     inkscape:window-y="-8"
     inkscape:window-maximized="1"
     showguides="true"
     inkscape:showpageshadow="2"
     inkscape:pagecheckerboard="0"
     inkscape:deskcolor="#d1d1d1" /><metadata
     id="metadata5"><rdf:RDF><cc:Work
         rdf:about=""><dc:format>image/svg+xml</dc:format><dc:type
           rdf:resource="http://purl.org/dc/dcmitype/StillImage" /><dc:title /></cc:Work></rdf:RDF></metadata><g
     inkscape:label="Layer 1"
     inkscape:groupmode="layer"
     id="layer1"
     transform="translate(-343.42045,133.54791)"><path
       id="path831"
       style="fill:#1a1819;fill-opacity:1;stroke-width:0.999998"
       d="m 365.68156,-133.54792 c -0.0698,0 -0.12713,0.0382 -0.12713,0.0848 0,0.0466 0.0572,0.0847 0.12713,0.0847 0.0698,0 0.12712,-0.0382 0.12712,-0.0847 0,-0.0466 -0.0572,-0.0848 -0.12712,-0.0848 z m -0.4284,0.13643 c -0.14403,0.002 -0.22225,0.19631 -0.33642,0.71261 -0.077,0.34825 -0.16018,0.71845 -0.18448,0.82269 -0.0243,0.10425 -0.077,0.16908 -0.11731,0.14418 -0.11524,-0.0712 -0.41547,0.12369 -0.41547,0.26975 0,0.0726 0.0739,0.15117 0.16381,0.17467 0.0926,0.0242 0.14439,0.0916 0.11989,0.15554 -0.0297,0.0772 0.0455,0.12103 0.23823,0.13953 0.19547,0.0188 0.29061,0.0757 0.31161,0.18655 0.0246,0.12986 -0.007,0.15035 -0.1695,0.10955 -0.27431,-0.0688 -0.41509,0.0386 -0.54519,0.41703 -0.0796,0.23164 -0.085,0.35322 -0.0196,0.43202 0.0669,0.0806 0.0601,0.11124 -0.0253,0.11524 -0.0639,0.003 -0.0267,0.0412 0.0822,0.0848 0.1248,0.0498 0.24978,0.0487 0.33848,-0.003 0.11804,-0.0689 0.10682,-0.0828 -0.0708,-0.0858 -0.1681,-0.003 -0.18562,-0.0211 -0.0847,-0.0863 0.19322,-0.12486 0.42323,-0.10045 0.42323,0.045 0,0.0713 -0.057,0.15159 -0.1266,0.17829 -0.0696,0.0267 -0.10829,0.0783 -0.0858,0.11472 0.0225,0.0364 -0.0398,0.0874 -0.13849,0.11317 -0.1197,0.0313 -0.16247,0.0907 -0.12867,0.1788 0.0315,0.0822 0.005,0.13229 -0.0718,0.13229 -0.18929,0 -0.26532,0.42828 -0.0977,0.55087 0.076,0.0556 0.11016,0.1317 0.076,0.1695 -0.0342,0.0381 -0.0157,0.0423 0.0408,0.01 0.14838,-0.0852 0.49126,0.27665 0.37362,0.39429 -0.0649,0.065 -0.0649,0.12309 0.002,0.20309 0.0709,0.0855 0.0594,0.11214 -0.0491,0.11214 -0.0783,0 -0.12205,0.0331 -0.0971,0.0734 0.0249,0.0404 -0.03,0.14149 -0.12195,0.22479 -0.16234,0.14674 -0.16744,0.14495 -0.16744,-0.0455 0,-0.2571 -0.0472,-0.19431 -0.11265,0.14935 -0.0623,0.32731 0.11306,0.38158 0.31264,0.0966 0.0688,-0.0982 0.16623,-0.15305 0.21653,-0.12195 0.14901,0.0921 0.10473,0.216 -0.0775,0.216 -0.19769,0 -0.22704,0.15255 -0.0429,0.22325 0.0693,0.0267 0.10506,0.0825 0.0791,0.12454 -0.026,0.042 0.0125,0.0992 0.0853,0.12712 0.2129,0.0817 0.15592,0.28681 -0.0796,0.28681 -0.11646,0 -0.21136,-0.0366 -0.21136,-0.0817 0,-0.0451 -0.0668,-0.0581 -0.14831,-0.0284 -0.13274,0.0484 -0.13149,0.0348 0.0134,-0.13022 0.089,-0.10132 0.14179,-0.20444 0.11679,-0.22944 -0.025,-0.025 -0.14942,0.0784 -0.27647,0.22944 -0.17297,0.20552 -0.20208,0.28611 -0.11628,0.32091 0.16509,0.067 0.19209,0.34262 0.0336,0.34262 -0.0719,0 -0.13074,0.0528 -0.13074,0.1173 0,0.15133 0.40029,0.4154 0.51883,0.3421 0.0643,-0.0398 0.0751,1.0128 0.0372,3.6158 -0.0542,3.72283 -0.0884,4.42879 -0.21239,4.35219 -0.038,-0.0234 -0.094,0.0803 -0.12402,0.23047 -0.0321,0.16018 -0.0188,0.28541 0.032,0.30231 0.0484,0.0161 0.0819,0.25916 0.0749,0.55087 -0.0114,0.49439 -0.0154,0.50413 -0.077,0.18345 -0.0425,-0.22094 -0.0607,0.0366 -0.0517,0.74053 0.007,0.59345 0.0421,1.07926 0.077,1.07952 0.0349,2.6e-4 0.0636,0.0961 0.0636,0.2129 0,0.19254 -0.0165,0.20202 -0.17466,0.10542 -0.14736,-0.09 -0.19136,-0.0831 -0.28526,0.0434 -0.0714,0.0962 -0.25354,0.16022 -0.50901,0.17932 -0.21869,0.0164 -0.44091,0.073 -0.49351,0.12557 -0.0526,0.0526 -0.17375,0.0956 -0.26975,0.0956 h -0.17467 l 0.001,7.10757 c 7.1e-4,5.5742 -0.0219,7.130415 -0.10491,7.213515 -0.0799,0.0797 -0.10593,0.08083 -0.10593,0.0041 0,-0.2206 -0.128,-0.08571 -0.1447,0.152446 -0.0128,0.182629 0.0197,0.254248 0.11628,0.254248 0.10519,0 0.12263,0.05729 0.0811,0.264583 -0.0291,0.14552 -0.0531,0.345417 -0.0538,0.444417 -10e-4,0.1356 -0.0196,0.151145 -0.0754,0.06305 -0.0493,-0.07713 -0.0657,-0.0194 -0.0501,0.169498 0.0312,0.37622 0.0428,0.398718 0.11369,0.219108 0.0533,-0.13502 0.0866,-0.123473 0.30644,0.105937 0.17905,0.18693 0.20985,0.257349 0.11265,0.257349 -0.20059,0 -0.24533,0.219824 -0.076,0.373103 0.26751,0.24209 0.49579,0.09216 0.33538,-0.220141 -0.0674,-0.13122 -0.0538,-0.133064 0.15968,-0.0217 0.12828,0.06689 0.30948,0.121696 0.40308,0.121956 0.0936,2.8e-4 0.2171,0.07563 0.2744,0.167432 l -5.2e-4,0.001 c 0.10047,0.16058 0.35967,0.155525 0.35967,-0.0072 0,-0.1061 0.37101,-0.09459 0.48059,0.01499 0.0644,0.064 0.39347,0.06238 1.13843,-0.0067 1.26004,-0.11687 1.64691,-0.20724 1.72341,-0.40256 0.16868,-0.430639 0.22518,-3.769701 0.12196,-7.217131 -0.0593,-1.97907 -0.10907,-4.84225 -0.11007,-6.36292 l -0.002,-2.7652 -0.53175,-0.0568 c -0.29254,-0.0313 -0.55556,-0.0949 -0.58446,-0.14159 -0.0289,-0.0466 -0.14425,-0.0622 -0.25632,-0.0341 l -0.2036,0.0512 0.0543,-2.01279 c 0.0492,-1.81964 -0.0533,-6.61086 -0.1912,-8.93434 l -0.0538,-0.91002 h 0.2589 c 0.34401,0 0.5271,-0.0766 0.5271,-0.22066 0,-0.10974 -0.24289,-0.15911 -0.60616,-0.12351 -0.0774,0.008 -0.16964,-0.0327 -0.20464,-0.0894 -0.0441,-0.0713 -0.0199,-0.0862 0.078,-0.0486 0.0779,0.0299 0.24282,0.0157 0.3669,-0.0315 0.20615,-0.0784 0.21438,-0.0972 0.0915,-0.22014 -0.12291,-0.12291 -0.11712,-0.15264 0.0698,-0.33951 0.23222,-0.23223 0.2533,-0.3283 0.0925,-0.4253 -0.13204,-0.0797 -0.25198,-0.3638 -0.15348,-0.3638 0.0373,0 0.0682,-0.0572 0.0682,-0.12713 0,-0.1393 -0.11055,-0.17386 -0.15555,-0.0486 -0.0155,0.0433 -0.12336,0.0256 -0.23978,-0.0393 l -0.21187,-0.11782 0.27543,-0.003 c 0.15134,-0.002 0.27492,-0.0407 0.27492,-0.0873 0,-0.0466 -0.0439,-0.0847 -0.0977,-0.0847 -0.0584,0 -0.0411,-0.0628 0.0429,-0.15555 0.13252,-0.1464 0.12815,-0.16144 -0.0754,-0.25424 -0.11893,-0.0542 -0.2713,-0.0982 -0.339,-0.0982 -0.28001,0 -0.0976,-0.17028 0.1943,-0.18138 l 0.3173,-0.0124 -0.33848,-0.0537 -0.33848,-0.0532 0.31729,-0.12092 c 0.35613,-0.13531 0.39787,-0.21897 0.14831,-0.29817 -0.24691,-0.0784 -0.20698,-0.2118 0.0636,-0.21239 l 0.23255,-5.2e-4 -0.24237,-0.12609 c -0.13338,-0.0696 -0.31887,-0.12661 -0.41237,-0.12661 -0.1415,0 -0.1523,-0.0214 -0.0646,-0.12712 0.058,-0.0698 0.15177,-0.12713 0.20877,-0.12713 0.057,0 0.19183,-0.0759 0.29921,-0.16898 0.1074,-0.0931 0.14847,-0.1695 0.0915,-0.1695 -0.057,0 -0.15743,-0.0536 -0.22273,-0.11885 -0.10191,-0.10191 -0.0997,-0.1259 0.014,-0.1695 0.0729,-0.0277 0.16689,-0.0293 0.20929,-0.003 0.0423,0.0262 0.077,0.005 0.077,-0.047 0,-0.0641 -0.1303,-0.0779 -0.40204,-0.0424 l -0.40204,0.0527 0.19998,-0.17467 c 0.10994,-0.0959 0.28837,-0.17415 0.39688,-0.17415 0.10851,0 0.22261,-0.0409 0.25321,-0.0904 0.038,-0.0614 -0.0479,-0.0706 -0.27026,-0.0289 -0.29684,0.0556 -0.31568,0.0488 -0.20981,-0.0791 0.0999,-0.12068 0.097,-0.14056 -0.0212,-0.14056 -0.17828,0 -0.17431,-0.0801 0.0109,-0.22066 0.13752,-0.10437 0.13795,-0.11324 0.004,-0.11524 -0.11281,-0.002 -0.13687,-0.0621 -0.11007,-0.27389 0.0188,-0.14921 -0.004,-0.31742 -0.0501,-0.37362 -0.0547,-0.0661 -0.0556,-0.11986 -0.002,-0.15296 0.0985,-0.0609 0.21326,0.25103 0.13746,0.37362 -0.067,0.1084 0.0459,0.10811 0.21136,-5.2e-4 0.0903,-0.0593 0.0991,-0.10156 0.0305,-0.14676 -0.13418,-0.0884 -0.27964,-0.65698 -0.22324,-0.87281 0.0366,-0.14004 0.0121,-0.1733 -0.11317,-0.154 -0.088,0.0136 -0.23813,-0.0189 -0.33383,-0.0718 -0.0664,-0.0367 -0.12149,-0.0572 -0.1695,-0.0563 z m -0.66456,0.2868 c -0.16974,0 -0.24103,0.13682 -0.17673,0.33951 0.0637,0.20089 0.15306,0.214 0.29507,0.0429 0.12601,-0.15183 0.0547,-0.3824 -0.11834,-0.3824 z m 1.13533,0.33848 c 0.0466,0 0.0847,0.0382 0.0847,0.0848 0,0.0466 -0.0381,0.0847 -0.0847,0.0847 -0.0466,0 -0.0847,-0.0382 -0.0847,-0.0847 0,-0.0466 0.0381,-0.0848 0.0847,-0.0848 z m -1.21233,0.43098 c -0.0214,0.002 -0.0629,0.0517 -0.14469,0.14986 -0.0914,0.10963 -0.14399,0.23506 -0.11679,0.27906 0.0776,0.12549 0.28877,-0.0954 0.28577,-0.29869 -10e-4,-0.0887 -0.003,-0.13266 -0.0243,-0.13023 z m 0.36122,0.54622 c 0.007,-3e-5 0.0129,0.002 0.0186,0.005 0.0448,0.0279 0.0621,0.1027 0.0377,0.1664 -0.0244,0.0636 -0.008,0.13838 0.0367,0.16588 0.0446,0.0275 0.0806,0.0859 0.0806,0.12971 0,0.0833 -0.14113,0.0951 -0.31109,0.0258 -0.0728,-0.0297 -0.0763,-0.10799 -0.0129,-0.2899 0.0418,-0.11978 0.10489,-0.20285 0.15038,-0.20309 z m -0.13178,1.2299 c 0.008,-0.005 0.006,0.0196 -0.006,0.0672 -0.0187,0.0731 0.0175,0.0974 0.0987,0.0661 0.1733,-0.0665 0.16184,0.0282 -0.0202,0.16639 -0.21508,0.16325 -0.35967,0.14288 -0.35967,-0.0512 0,-0.0931 0.0539,-0.16949 0.11989,-0.16949 0.066,0 0.13605,-0.0287 0.15555,-0.0636 0.005,-0.009 0.009,-0.0138 0.0114,-0.0155 z m 1.53841,0.58704 c -0.0726,0 -0.13229,0.0382 -0.13229,0.0848 0,0.0466 0.0363,0.0847 0.0801,0.0847 0.0438,0 0.10297,-0.0381 0.13177,-0.0847 0.0288,-0.0466 -0.007,-0.0848 -0.0796,-0.0848 z m -14.05961,0.25425 c -0.131,0 -0.16816,0.10004 -0.0729,0.19534 0.0676,0.0676 0.19947,-0.009 0.19947,-0.11576 0,-0.0438 -0.0567,-0.0796 -0.12661,-0.0796 z m 4.63848,0.37931 c -0.0667,0.0131 -0.10904,0.12158 -0.10904,0.30902 0,0.19687 0.0337,0.24876 0.14728,0.22686 0.1819,-0.035 0.24048,-0.28871 0.10439,-0.45268 -0.0535,-0.0644 -0.10261,-0.0911 -0.14263,-0.0832 z m -2.49287,0.12867 c -0.11817,0 -0.081,0.18782 0.0703,0.35502 0.0946,0.1046 0.17046,0.12875 0.22686,0.0724 0.0865,-0.0865 -0.15059,-0.42737 -0.29714,-0.42737 z m 10.43192,0.0842 c 0.0438,0 0.0801,0.0382 0.0801,0.0848 0,0.0466 -0.0597,0.0847 -0.13229,0.0847 -0.0727,0 -0.10838,-0.0382 -0.0796,-0.0847 0.0288,-0.0466 0.088,-0.0848 0.13177,-0.0848 z m 0.9369,0 c 0.0465,0 0.0608,0.0382 0.032,0.0848 -0.0288,0.0466 -0.0903,0.0847 -0.13694,0.0847 -0.0465,0 -0.0614,-0.0382 -0.0326,-0.0847 0.0288,-0.0466 0.0909,-0.0848 0.13746,-0.0848 z m -7.7153,0.30024 c -0.066,0.007 -0.13666,0.0598 -0.15451,0.15245 -0.0218,0.11314 0.0129,0.14737 0.12609,0.12557 0.0858,-0.0165 0.15555,-0.0863 0.15555,-0.15554 0,-0.0907 -0.0612,-0.1295 -0.12713,-0.12248 z m 6.689,0.30335 c 0.0384,0 0.0768,0.006 0.10594,0.0181 0.0582,0.0235 0.0105,0.0424 -0.10594,0.0424 -0.11643,0 -0.16414,-0.0189 -0.10594,-0.0424 0.0291,-0.0117 0.0676,-0.0181 0.10594,-0.0181 z m -8.94519,0.0884 c -0.15362,0.0221 -0.15897,0.2069 0.0129,0.37879 0.0698,0.0699 0.12712,0.21971 0.12712,0.3328 0,0.27483 0.15181,0.26239 0.22221,-0.0181 0.0801,-0.31913 -0.0618,-0.66006 -0.28784,-0.69246 -0.0279,-0.004 -0.0525,-0.004 -0.0744,-0.001 z m -2.00815,0.0377 c -0.0525,-0.002 -0.12653,0.0259 -0.22841,0.0785 -0.15295,0.0791 -0.24676,0.20306 -0.26406,0.34779 -0.0216,0.18047 -0.094,0.24422 -0.36587,0.32452 -0.18626,0.055 -0.41488,0.14197 -0.50798,0.19327 -0.14552,0.0801 -0.98525,0.35916 -1.08055,0.35916 -0.0177,0 -0.0169,-0.10576 0.002,-0.23513 0.0219,-0.14934 0.12472,-0.28662 0.28164,-0.37672 0.24676,-0.14162 0.33142,-0.42652 0.15865,-0.5333 -0.11421,-0.0706 -0.50437,0.18407 -0.50437,0.32917 0,0.0754 -0.11486,0.10887 -0.35708,0.10387 -0.29426,-0.006 -0.36232,0.0223 -0.38602,0.16175 -0.0158,0.0931 -0.0519,0.22672 -0.0801,0.29662 -0.0281,0.0698 -0.0544,0.1462 -0.0594,0.1695 -0.005,0.0233 -0.0403,0.0915 -0.0786,0.15193 -0.0383,0.0604 -0.0486,0.16546 -0.0227,0.23306 0.0362,0.0943 -0.0356,0.12636 -0.30954,0.13746 -0.5685,0.023 -0.59618,0.0296 -0.90795,0.22583 -0.17236,0.10843 -0.37179,0.16834 -0.47698,0.14314 -0.1308,-0.0314 -0.19289,0.003 -0.22479,0.12506 -0.0557,0.21307 -0.22944,0.22135 -0.22944,0.0108 0,-0.26576 -0.32649,-0.6041 -0.58291,-0.6041 -0.37536,0 -0.65753,0.33656 -0.61133,0.72916 0.006,0.0552 -0.0726,0.0784 -0.19069,0.0558 -0.16662,-0.0318 -0.21849,0.01 -0.29869,0.23978 -0.0787,0.22569 -0.0741,0.30161 0.0253,0.40101 0.10706,0.10706 0.0884,0.14547 -0.14676,0.30282 -0.14816,0.0991 -0.30296,0.25578 -0.34416,0.34778 -0.0413,0.092 -0.22312,0.23718 -0.40411,0.32298 -0.18099,0.0858 -0.38631,0.26719 -0.45631,0.40256 -0.14583,0.28212 -0.24516,0.32751 -0.16536,0.076 0.0358,-0.11282 0.01,-0.18676 -0.0786,-0.22066 -0.073,-0.028 -0.13332,-0.1413 -0.13332,-0.25166 0,-0.11944 -0.0834,-0.25561 -0.20671,-0.33641 -0.45846,-0.30039 -0.96118,0.32282 -0.59066,0.73225 0.16302,0.18013 0.38716,0.20656 0.63407,0.0744 0.14097,-0.0755 0.1633,-0.0592 0.1633,0.11782 0,0.11307 -0.0599,0.22863 -0.13333,0.25683 -0.0911,0.035 -0.12619,0.13862 -0.11059,0.3266 0.0153,0.18352 -0.0512,0.38818 -0.19895,0.61391 -0.12196,0.18627 -0.26653,0.50979 -0.32143,0.71934 -0.0548,0.20955 -0.13088,0.40046 -0.16898,0.42426 -0.038,0.0237 -0.0915,0.1383 -0.11886,0.25425 -0.0589,0.2496 0.24841,0.83989 0.5054,0.971 0.093,0.0474 0.47323,0.40539 0.84491,0.7953 1.63289,1.71297 3.42064,2.71437 6.00738,3.36414 l 0.56638,0.14211 0.21549,0.4749 c 0.11854,0.26116 0.39738,0.8557 0.6196,1.32137 0.99497,2.08502 1.53112,3.4539 2.07222,5.29166 1.63144,5.54097 3.08915,10.174979 3.53932,11.250998 0.23112,0.552439 0.30143,0.643627 0.60462,0.781347 0.9297,0.42228 1.90944,-0.04711 1.90944,-0.914673 0,-0.741029 -0.52899,-2.725942 -2.10478,-7.900812 -1.19285,-3.9173 -1.26379,-4.16442 -1.36633,-4.73614 -0.038,-0.21209 -0.15124,-0.78591 -0.25114,-1.27486 -0.26075,-1.27674 -0.5841,-3.51248 -0.68523,-4.73614 l -0.0873,-1.05369 0.88057,-0.894 c 0.4841,-0.49168 1.05186,-1.12258 1.26194,-1.40198 0.91243,-1.2135 1.55457,-2.62488 1.75441,-3.85661 0.14775,-0.91066 0.13277,-0.98241 -0.25683,-1.22835 -0.19067,-0.12039 -0.36355,-0.20179 -0.38395,-0.18139 -0.0204,0.0204 -0.0953,0.42782 -0.1664,0.90537 -0.0711,0.47756 -0.22145,1.13983 -0.33435,1.47175 -0.11287,0.33191 -0.18326,0.48903 -0.15606,0.34933 0.16433,-0.84337 0.2845,-1.74432 0.2775,-2.07429 -0.007,-0.29893 -0.0408,-0.19868 -0.15813,0.4656 -0.0822,0.46567 -0.19611,1.01829 -0.25321,1.22784 -0.18117,0.66543 -0.60606,1.69676 -0.68006,1.65106 -0.0392,-0.0242 -0.11509,0.0898 -0.16899,0.25321 -0.11544,0.34976 -0.21558,0.37914 -0.28938,0.0853 -0.0757,-0.30178 -0.1551,-0.26348 -0.32867,0.15865 -0.0836,0.20341 -0.20947,0.44166 -0.27957,0.52916 -0.1237,0.15435 -0.12615,0.15402 -0.0847,-0.0103 0.11543,-0.45773 0.12227,-0.64585 0.0114,-0.31368 -0.0669,0.20013 -0.0987,0.42868 -0.0703,0.50798 0.0284,0.0791 0.0216,0.1168 -0.0155,0.0832 -0.0371,-0.0336 -0.17363,0.15681 -0.30334,0.42323 -0.27496,0.56484 -0.31617,0.49418 -0.0915,-0.15813 0.26974,-0.7831 0.53644,-1.34683 0.61443,-1.29863 0.0411,0.0254 0.0749,-0.0472 0.0749,-0.16175 0,-0.11454 0.0938,-0.4117 0.20877,-0.6599 0.14087,-0.30412 0.18121,-0.47922 0.12351,-0.53692 -0.0577,-0.0577 -0.11157,-0.0443 -0.16537,0.0408 -0.061,0.0966 -0.0835,0.0667 -0.0925,-0.12764 -0.007,-0.15152 -0.0382,-0.0659 -0.0765,0.21187 -0.042,0.30465 -0.26572,0.88633 -0.64751,1.68207 l -0.58394,1.21595 -0.25115,-0.48783 -0.25115,-0.48782 0.35916,-0.72812 c 0.48031,-0.9734 0.62116,-1.54943 0.67386,-2.76056 0.0627,-1.4405 -0.13163,-2.35645 -0.53796,-2.53524 -0.10633,-0.0468 -0.22302,-0.21756 -0.28112,-0.41135 -0.0545,-0.18208 -0.11927,-0.38407 -0.14417,-0.44907 -0.0274,-0.0715 0.009,-0.11834 0.093,-0.11834 0.0763,0 0.16088,-0.057 0.18758,-0.1266 0.0662,-0.17247 0.68679,-0.0782 0.92863,0.14107 0.0981,0.089 0.28853,0.18146 0.42323,0.20516 0.1347,0.0237 0.30443,0.11996 0.37723,0.21446 0.11643,0.15111 0.14535,0.15641 0.23875,0.0439 0.15689,-0.18904 0.80008,0.0266 1.18752,0.39791 0.16738,0.16042 0.46279,0.37087 0.65629,0.46767 0.19351,0.0968 0.43167,0.27702 0.52917,0.40101 0.0975,0.12402 0.17725,0.18693 0.17725,0.13953 0,-0.10043 -0.64292,-0.69867 -0.75086,-0.69867 -0.0401,0 -0.17475,-0.0799 -0.2992,-0.17776 -0.1713,-0.13475 -0.20396,-0.20498 -0.13436,-0.28888 0.0994,-0.11975 -0.0242,-0.25893 -0.1571,-0.17673 -0.12169,0.0752 -0.957,-0.28489 -1.11828,-0.48214 -0.12252,-0.1499 -0.17415,-0.16603 -0.26045,-0.0811 -0.18736,0.18427 -0.58345,0.12644 -0.77153,-0.11266 -0.10896,-0.13851 -0.22869,-0.20336 -0.32659,-0.17776 -0.085,0.0223 -0.3181,-0.0173 -0.5178,-0.0873 -0.26692,-0.0937 -0.56273,-0.11501 -1.11673,-0.0806 l -0.75344,0.047 0.31109,-0.21135 c 0.35114,-0.23859 0.33045,-0.40893 -0.0398,-0.32763 -0.21844,0.048 -0.24598,0.0311 -0.24598,-0.15038 0,-0.18047 -0.0278,-0.26354 -0.11524,-0.26613 z m 10.40815,0.0326 c -0.0206,0 -0.0611,0.0382 -0.0899,0.0847 -0.0288,0.0466 -0.0121,0.0848 0.0372,0.0848 0.0494,0 0.0899,-0.0382 0.0899,-0.0848 0,-0.0466 -0.0167,-0.0847 -0.0372,-0.0847 z m -7.02437,0.12144 c -0.059,-0.007 -0.11412,0.0131 -0.1478,0.0667 -0.0376,0.0598 -0.046,0.17922 -0.0191,0.26562 0.044,0.1413 0.0143,0.15099 -0.29817,0.0982 -0.20584,-0.0348 -0.34727,-0.0254 -0.34727,0.0227 0,0.0447 0.22293,0.10615 0.49558,0.13695 0.27261,0.0309 0.56799,0.11096 0.65629,0.17776 0.0883,0.0668 0.26182,0.12303 0.38602,0.12403 0.1242,0.001 0.39536,0.0752 0.60203,0.16381 0.2933,0.12572 0.3866,0.21574 0.4253,0.40928 0.0273,0.13639 0.1615,0.36785 0.29869,0.5147 0.13718,0.14686 0.27104,0.32309 0.29714,0.39119 0.0261,0.0681 0.16649,0.18515 0.31213,0.26045 0.24451,0.12619 0.28114,0.12639 0.478,-0.003 0.2085,-0.13666 0.21183,-0.13565 0.15193,0.0532 -0.0754,0.23754 -0.075,1.21889 5.2e-4,1.341 0.0813,0.13157 0.21446,0.10829 0.21446,-0.0377 0,-0.0698 0.0451,-0.12713 0.10025,-0.12713 0.15745,0 0.49248,-0.35218 0.49248,-0.51779 0,-0.24096 -0.16718,-0.27593 -0.37673,-0.0791 -0.17499,0.16443 -0.19998,0.16832 -0.24908,0.0403 -0.03,-0.0783 -0.01,-0.19598 0.0444,-0.26148 0.076,-0.0916 0.0716,-0.17027 -0.0196,-0.34107 -0.0652,-0.12219 -0.11886,-0.33572 -0.11886,-0.47439 0,-0.22729 -0.0392,-0.26396 -0.39687,-0.36897 -0.25726,-0.0755 -0.4155,-0.1756 -0.4501,-0.28473 -0.0294,-0.0926 -0.0889,-0.16847 -0.1323,-0.16847 -0.0435,0 -0.0791,-0.0645 -0.0791,-0.14366 0,-0.1053 -0.0254,-0.11883 -0.0941,-0.0501 -0.12656,0.12655 -1.29037,-0.42493 -1.33377,-0.632 -0.0423,-0.20185 -0.18728,-0.28476 -0.40773,-0.23306 -0.13117,0.0308 -0.19976,-0.004 -0.23616,-0.11834 -0.0407,-0.12808 -0.15027,-0.21377 -0.24856,-0.22531 z m 7.45071,0.13591 c -0.0362,-0.002 -0.11306,0.0242 -0.21756,0.0801 -0.0995,0.0533 -0.14057,0.14368 -0.11317,0.24856 0.0266,0.10158 0.0901,0.14609 0.16639,0.11679 0.0679,-0.0261 0.1055,-0.0948 0.0832,-0.15296 -0.0223,-0.0582 0.002,-0.14882 0.0543,-0.20102 0.0587,-0.0587 0.0631,-0.0893 0.0269,-0.0915 z m -15.66106,0.03 c -0.0309,0.001 -0.0527,0.0344 -0.0527,0.0889 0,0.1487 0.0509,0.17065 0.1235,0.0532 0.0268,-0.0433 0.0101,-0.10309 -0.0372,-0.13229 -0.0119,-0.007 -0.0233,-0.0102 -0.0336,-0.01 z m 0.50074,0.0455 c -0.16153,-0.005 -0.31762,0.0509 -0.38137,0.17001 -0.1283,0.23977 -0.10692,0.52072 0.0527,0.69712 0.18682,0.20639 0.44081,0.19582 0.68006,-0.0289 0.22941,-0.21548 0.24608,-0.38405 0.0641,-0.64389 -0.0867,-0.12373 -0.25394,-0.18935 -0.41548,-0.1943 z m -0.65267,0.30075 c -0.11782,-0.002 -0.41925,0.38195 -0.36019,0.4775 0.085,0.1376 0.19978,0.0766 0.3297,-0.17467 0.0725,-0.14014 0.0953,-0.27014 0.0517,-0.29714 -0.006,-0.004 -0.0133,-0.006 -0.0212,-0.006 z m 11.54865,0.12816 c -0.32201,0 -0.45712,0.31235 -0.23255,0.53692 0.1354,0.13537 0.43218,0.10017 0.49248,-0.0584 0.0658,-0.17304 -0.10022,-0.47853 -0.25993,-0.47853 z m -3.78685,5.2e-4 c -0.15026,0 -0.15684,0.0407 -0.0398,0.25941 0.11786,0.22014 0.16639,0.20601 0.16639,-0.0481 0,-0.13167 -0.0476,-0.21136 -0.1266,-0.21136 z m 9.2046,0.0894 c 0.031,-0.003 0.0703,5e-5 0.11524,0.009 0.13167,0.0257 0.13327,0.0396 0.0139,0.1385 -0.0952,0.0789 -0.1493,0.0833 -0.1912,0.0155 -0.0581,-0.094 -0.0313,-0.15377 0.062,-0.16278 z m -10.76988,0.16175 c 0.0763,0.0142 0.14423,0.0966 0.14573,0.23616 10e-4,0.12805 0.0897,0.4993 0.19637,0.82527 0.17619,0.5381 0.19388,0.75265 0.19688,2.32854 l 0.003,1.7353 -0.3085,0.8878 c -0.16955,0.48824 -0.29612,0.90019 -0.28112,0.91519 0.0459,0.0459 0.52086,-1.25875 0.68729,-1.88774 0.1728,-0.65328 0.21848,-2.1923 0.0889,-3.00344 -0.0666,-0.41686 -0.0604,-0.45235 0.0594,-0.35295 0.25713,0.21336 0.35082,0.70562 0.34882,1.83245 -0.002,1.25455 -0.1613,1.96357 -0.70228,3.12539 -0.29331,0.62992 -0.32068,0.66117 -0.45579,0.52606 -0.079,-0.079 -0.15465,-0.13615 -0.16795,-0.12815 -0.0624,0.0398 -0.40514,-0.11452 -0.40514,-0.18242 0,-0.0447 0.0877,-0.0431 0.21187,0.004 0.11667,0.0442 0.21136,0.0467 0.21136,0.006 0,-0.0409 -0.10914,-0.11205 -0.24288,-0.15865 -0.20859,-0.0727 -0.25172,-0.14351 -0.30282,-0.49558 -0.0964,-0.66427 -0.5378,-1.89062 -0.90176,-2.50579 -0.18597,-0.31433 -0.36792,-0.57154 -0.40462,-0.57154 -0.17413,0 -0.13682,0.14727 0.20153,0.7891 0.40789,0.77372 0.5912,1.27121 0.6749,1.83555 0.0546,0.36838 0.047,0.38605 -0.22479,0.52296 -0.15459,0.0779 -0.42379,0.16531 -0.59842,0.19431 -0.35993,0.0598 -0.43159,0.21445 -0.0992,0.21445 0.22986,0 0.24721,0.14889 0.0305,0.26407 -0.0671,0.0356 -0.45177,0.1658 -0.85473,0.28887 -0.8426,0.25733 -0.81549,0.26373 -1.66139,-0.40514 -1.09019,-0.86203 -2.02134,-2.37254 -2.28307,-3.70365 -0.16246,-0.82608 -0.28519,-0.66719 -0.17725,0.22944 0.15548,1.29149 1.23898,2.84493 2.65204,3.80235 0.23221,0.15734 0.389,0.28578 0.3483,0.28578 -0.0407,0 -0.40254,-0.21905 -0.80357,-0.4868 -0.98364,-0.65675 -2.09749,-1.73904 -2.50269,-2.43189 -0.4095,-0.7002 -0.49737,-0.65985 -0.11834,0.0543 0.52167,0.98285 1.55193,1.90593 3.1564,2.82825 0.22979,0.1323 0.38961,0.19398 0.35501,0.13798 -0.0346,-0.0561 -0.0292,-0.1018 0.0124,-0.1018 0.21047,0 0.15799,0.15211 -0.16743,0.48369 -0.35488,0.36157 -0.35994,0.3756 -0.38034,1.02112 l -0.0207,0.65423 -0.27802,-0.0165 c -0.22414,-0.0136 -0.24473,-0.003 -0.108,0.0574 0.0931,0.0409 0.2549,0.0771 0.35967,0.0801 0.17134,0.005 0.23909,0.13013 0.19999,0.36845 -0.006,0.0362 0.0463,0.0878 0.11627,0.11472 0.0701,0.0268 0.10641,0.0828 0.0806,0.12454 -0.0257,0.0417 -0.0116,0.076 0.0315,0.076 0.0431,0 0.18189,0.15569 0.30799,0.34623 h -5.2e-4 c 0.12605,0.19054 0.21664,0.35635 0.20154,0.36845 -0.0151,0.0121 -0.23688,-0.0523 -0.49299,-0.14314 -0.25612,-0.0908 -0.65653,-0.17777 -0.88935,-0.19327 -0.48804,-0.0325 -1.38428,-0.38497 -2.21692,-0.87126 -1.84359,-1.07671 -3.66696,-2.85463 -3.66696,-3.5755 0,-0.0969 -0.0395,-0.25024 -0.0879,-0.34054 -0.0597,-0.11196 -0.0605,-0.26528 -0.002,-0.48215 0.0996,-0.36996 0.51046,-1.03559 0.63924,-1.03559 0.0486,0 0.17887,-0.22689 0.28887,-0.50385 0.19968,-0.50272 0.39442,-0.74515 0.74362,-0.925 0.24214,-0.12468 0.28112,-0.12059 0.28112,0.0315 0,0.1589 0.28493,0.1668 0.41393,0.0114 0.10017,-0.12071 0.0926,-0.36124 -0.017,-0.53692 -0.0668,-0.10697 0.33212,-0.36329 0.56534,-0.36329 0.0683,0 0.14341,-0.0477 0.16691,-0.10593 0.0246,-0.061 0.0451,-0.0403 0.0491,0.0486 0.004,0.10073 0.0583,0.14361 0.15503,0.12351 0.0924,-0.0192 0.14121,-0.0975 0.12971,-0.20826 -0.0133,-0.12789 0.0387,-0.18884 0.18604,-0.21704 0.11256,-0.0215 0.24138,-0.003 0.28628,0.0424 0.11352,0.11352 0.26562,0.001 0.26562,-0.19637 0,-0.0904 0.0557,-0.16433 0.12351,-0.16433 0.0678,0 0.26773,-0.0982 0.44442,-0.21808 0.17668,-0.11991 0.42701,-0.23878 0.55603,-0.26458 0.12903,-0.0258 0.25499,-0.0804 0.28009,-0.12093 0.0251,-0.0406 0.28117,-0.0744 0.56947,-0.0749 0.82191,-0.001 1.16261,-0.0808 1.24231,-0.29042 0.0959,-0.25204 0.68191,-0.43793 0.81545,-0.25838 0.12555,0.16882 0.57033,0.1602 0.90485,-0.0176 0.14903,-0.0792 0.49034,-0.16597 0.7581,-0.19327 0.42954,-0.0438 0.48679,-0.0322 0.48679,0.10129 0,0.21499 0.34152,0.19995 0.39842,-0.0176 0.0347,-0.13281 0.11959,-0.1868 0.19586,-0.1726 z m -7.43107,0.0191 c -0.0149,0.006 -0.0207,0.0319 -0.0207,0.0796 0,0.0714 0.0275,0.15772 0.0615,0.19172 0.034,0.034 0.0761,0.0179 0.094,-0.0357 0.0179,-0.0536 -0.01,-0.13992 -0.0615,-0.19172 -0.0346,-0.0346 -0.0585,-0.0496 -0.0734,-0.0439 z m 3.00653,0.16484 c 0.10121,-0.0114 0.2744,0.18454 0.2744,0.33745 0,0.0875 -0.0518,0.15865 -0.11523,0.15865 -0.0768,0 -0.10204,-0.0694 -0.0749,-0.21136 0.0261,-0.13687 0.002,-0.21187 -0.0682,-0.21187 -0.0602,0 -0.0842,-0.0244 -0.0543,-0.0543 0.0108,-0.0108 0.0238,-0.017 0.0382,-0.0186 z m 15.35824,0.21395 c 0.15723,8.6e-4 0.23678,0.0735 0.23978,0.21859 0.002,0.0891 -0.2559,0.0697 -0.50695,-0.0382 l -0.21136,-0.0909 0.29508,-0.0667 c 0.0697,-0.0157 0.13104,-0.023 0.18345,-0.0227 z m -11.01483,0.0284 c -0.18606,0 -0.29473,0.12724 -0.21653,0.25373 h -5.1e-4 c 0.0614,0.0993 0.0719,0.10099 0.24753,0.0336 0.18942,-0.0727 0.16661,-0.28732 -0.0305,-0.28732 z m -0.51573,0.0207 c -0.10037,0.003 -0.1946,0.12046 -0.1292,0.22634 h 5.2e-4 c 0.0313,0.0506 0.0902,0.092 0.13126,0.092 0.1308,0 0.19175,-0.18083 0.094,-0.27853 -0.0292,-0.0292 -0.0632,-0.0407 -0.0966,-0.0398 z m 1.96783,0.0884 c -0.0731,0.006 -0.10232,0.0463 -0.10232,0.13075 0,0.0851 0.0267,0.18175 0.0594,0.21445 0.10976,0.10976 0.32143,0.0104 0.32143,-0.15089 0,-0.10061 -0.0702,-0.17084 -0.19017,-0.18914 -0.0346,-0.005 -0.064,-0.007 -0.0884,-0.005 z m -4.2726,0.002 c -0.0833,0.006 -0.20606,0.0487 -0.31265,0.11162 -0.25256,0.14919 -0.31887,0.28213 -0.19947,0.40153 0.0556,0.0556 0.49853,-0.006 0.63924,-0.0884 0.11121,-0.0654 0.0684,-0.36968 -0.0589,-0.41858 -0.0169,-0.006 -0.0404,-0.008 -0.0682,-0.006 z m 29.91962,0.39533 c -0.067,-0.007 -0.14099,0.0277 -0.20774,0.1111 -0.10165,0.12706 -0.52518,0.2705 -0.71004,0.2403 -0.0566,-0.009 -0.17956,0.0597 -0.27336,0.15348 -0.12664,0.12679 -0.23626,0.15758 -0.42478,0.11988 -0.21576,-0.0432 -0.26615,-0.0192 -0.33435,0.1602 -0.0442,0.11614 -0.21444,0.29426 -0.37879,0.39584 -0.41656,0.25745 -0.98207,0.90875 -1.26142,1.45263 -0.26559,0.51707 -0.86306,2.46474 -1.22008,3.97753 -0.1513,0.64112 -0.28404,1.0268 -0.36484,1.0604 -0.0699,0.0291 -0.31498,0.0676 -0.54467,0.0853 -0.4737,0.0366 -0.55179,0.1146 -0.51469,0.51418 0.0144,0.15539 -0.002,0.28215 -0.0377,0.28215 -0.0811,0 -0.4083,0.89975 -0.56947,1.56632 -0.52369,2.16593 -0.68345,2.76418 -1.01389,3.79098 -0.20638,0.64129 -0.35512,1.1989 -0.33022,1.2392 0.0249,0.0403 -0.007,0.11628 -0.0703,0.16898 -0.0635,0.0527 -0.16329,0.26675 -0.22169,0.47542 -0.10938,0.39068 -0.31399,0.54737 -0.21859,0.16744 0.11741,-0.46779 -0.12135,-0.16756 -0.4284,0.53846 -0.31208,0.71759 -0.34095,0.7535 -0.66817,0.8413 -0.51571,0.1384 -0.76542,0.37798 -0.87747,0.84077 -0.16686,0.68918 -0.62041,2.17778 -0.69091,2.26808 -0.16415,0.21041 -1.19192,3.87972 -1.64796,5.88336 -0.1219,0.535509 -0.2715,1.189237 -0.3328,1.452627 -0.11054,0.47458 -0.10949,0.481527 0.13126,0.773596 0.19843,0.24073 0.35559,0.323163 0.85834,0.451652 0.33854,0.08651 0.67269,0.14956 0.74259,0.14056 0.0698,-0.0092 0.3748,0.05858 0.67748,0.150379 0.8293,0.251579 3.45633,1.019107 3.93154,1.148767 0.22984,0.06272 0.43931,0.148903 0.46561,0.191203 0.0263,0.04224 0.143,0.09522 0.25941,0.117822 0.51058,0.09917 0.7964,0.01995 0.99581,-0.275952 0.12403,-0.184 0.16095,-0.305981 0.10335,-0.341581 -0.0633,-0.03882 -0.0618,-0.129308 0.004,-0.302308 0.0518,-0.135839 0.33604,-1.085489 0.63148,-2.109948 0.29545,-1.024469 0.84793,-2.739077 1.22835,-3.810107 0.38041,-1.07104 0.82197,-2.39756 0.98082,-2.94814 0.25659,-0.88925 0.27442,-1.01542 0.16175,-1.12809 -0.0697,-0.0698 -0.12661,-0.1862 -0.12661,-0.2589 0,-0.0727 -0.0723,-0.25065 -0.16071,-0.39584 -0.1386,-0.22749 -0.14975,-0.3284 -0.0786,-0.72968 0.0454,-0.25612 0.15509,-0.68609 0.24339,-0.95549 l 0.1602,-0.4899 -0.21446,-0.0816 c -0.11816,-0.0449 -0.25054,-0.0816 -0.29404,-0.0816 -0.13354,0 -0.0901,-0.22291 0.17364,-0.88677 0.37883,-0.95365 0.53881,-1.45413 1.23765,-3.87987 0.35149,-1.22007 0.69421,-2.27958 0.76171,-2.35437 0.10776,-0.11899 0.10676,-0.1496 -0.006,-0.2434 -0.0711,-0.0589 -0.12902,-0.15007 -0.12919,-0.20257 -3e-4,-0.11653 -0.48197,-0.44341 -0.60462,-0.41031 -0.0486,0.0131 -0.0704,-0.0251 -0.0486,-0.0847 0.0218,-0.0597 0.0868,-0.0977 0.14469,-0.0842 0.0741,0.0173 0.0888,-0.045 0.0501,-0.21135 -0.0359,-0.15422 -0.0281,-0.19632 0.0222,-0.12092 0.0828,0.12416 0.70419,-1.64073 1.02422,-2.90939 0.39478,-1.56487 0.52812,-3.2931 0.33332,-4.32377 -0.0522,-0.2763 -0.0999,-0.63505 -0.10594,-0.79736 -0.008,-0.20431 -0.10015,-0.33023 -0.21187,-0.34158 z m -31.05909,0.0264 c -0.0316,-0.001 -0.0681,1.3e-4 -0.10955,0.005 -0.30711,0.0337 -0.37503,0.0915 -0.30903,0.26355 0.0958,0.24956 0.56328,0.0986 0.56328,-0.1819 0,-0.0535 -0.0499,-0.0826 -0.1447,-0.0863 z m -1.08985,0.31781 c -0.0647,0.006 -0.11989,0.0722 -0.11989,0.19379 0,0.10865 0.0253,0.22325 0.0563,0.25425 0.15835,0.15829 0.31948,-0.0321 0.23978,-0.28319 -0.0374,-0.11789 -0.11155,-0.17118 -0.17621,-0.16485 z m 31.93965,0.0388 c 0.0187,-1.4e-4 0.0342,0.002 0.0465,0.006 0.20085,0.0638 0.18781,0.10153 -0.22893,0.64337 -0.61195,0.79567 -1.04781,1.22357 -1.49242,1.46555 -0.31689,0.17248 -0.59854,0.25008 -1.01802,0.28008 -0.31897,0.0228 -0.57981,0.0111 -0.57981,-0.0258 0,-0.31994 1.47844,-1.71711 1.71927,-1.62471 0.0621,0.0238 0.15521,-0.0239 0.20671,-0.10645 0.12433,-0.19909 1.06666,-0.63561 1.34669,-0.63769 z m -32.68431,0.0424 c -0.1436,0 -0.3259,0.20637 -0.2496,0.28267 0.12572,0.12571 0.36639,0.0511 0.36639,-0.11368 0,-0.0931 -0.0527,-0.16899 -0.11679,-0.16899 z m 11.91297,0.005 c -0.0536,0.004 -0.12056,0.0297 -0.19689,0.0791 -0.1085,0.0702 -0.10543,0.0827 0.0212,0.0837 0.0815,7e-4 0.14831,0.0392 0.14831,0.0858 0,0.0466 0.0382,0.0847 0.0847,0.0847 0.0466,0 0.0848,-0.0764 0.0848,-0.1695 0,-0.11406 -0.0528,-0.17 -0.14211,-0.16382 z m -14.95051,0.0145 c -0.0386,0.0131 -0.0631,0.0675 -0.0631,0.14935 0,0.10917 0.0429,0.16931 0.10594,0.14831 0.0582,-0.0194 0.10594,-0.0862 0.10594,-0.14831 0,-0.0621 -0.0477,-0.12891 -0.10594,-0.14831 -0.0157,-0.005 -0.03,-0.005 -0.0429,-0.001 z m 18.94199,0.2341 c 0.15214,0 0.21834,1.32257 0.26924,5.37641 0.024,1.90924 0.0529,3.6806 0.0646,3.93671 0.0284,0.61998 -0.0298,0.93121 -0.17466,0.93121 -0.19169,0 -0.23185,0.24667 -0.0693,0.42633 0.19766,0.21848 0.18515,1.1448 -0.0186,1.36995 -0.0753,0.0832 -0.16654,0.15141 -0.20309,0.15141 -0.14239,0 -0.16572,-0.1774 -0.0398,-0.30334 0.16734,-0.16769 0.1678,-0.32623 10e-4,-0.493 -0.1042,-0.10421 -0.11142,-0.16818 -0.0346,-0.3116 0.0605,-0.11301 0.0742,-0.32675 0.0367,-0.5731 -0.0698,-0.45879 -0.0599,-7.22725 0.0134,-9.17773 0.0367,-0.97511 0.0785,-1.33325 0.15503,-1.33325 z m 17.00207,0.0331 c 0.009,-0.009 0.0206,0.003 0.0341,0.0367 h 5.2e-4 c 0.0241,0.0611 0.0209,0.13417 -0.007,0.16227 -0.0282,0.0281 -0.0484,-0.0218 -0.0444,-0.11111 0.002,-0.0494 0.008,-0.0789 0.0171,-0.0879 z m -0.0972,0.30748 c 0.12028,-0.002 0.1257,0.46277 0.0171,1.4521 -0.0631,0.57444 -0.13845,1.13984 -0.16795,1.25626 l -0.0537,0.21187 -0.0584,-0.21187 c -0.0559,-0.20328 -0.0608,-0.19988 -0.13074,0.0847 -0.04,0.16298 -0.0642,0.32865 -0.0537,0.36845 0.0105,0.0398 -0.0188,0.11792 -0.0646,0.17312 -0.0458,0.0552 -0.18969,0.63204 -0.31988,1.28209 -0.14793,0.73862 -0.24763,1.08685 -0.26613,0.92811 -0.0227,-0.19465 -0.0751,-0.0793 -0.22376,0.49402 -0.21576,0.83193 -0.25237,0.8885 -0.66973,1.03198 -0.242,0.0832 -0.40003,0.0735 -0.91312,-0.0553 -0.34117,-0.0857 -0.67734,-0.1551 -0.74724,-0.15451 -0.22892,0.002 0.0907,0.14005 0.46767,0.20205 0.18722,0.0308 0.39671,0.0918 0.46561,0.13539 0.13868,0.0877 0.13383,0.0879 -0.38292,0.0258 -0.67757,-0.0814 -2.16021,-0.53692 -1.7477,-0.53692 0.0583,0 0.0864,-0.0326 0.0615,-0.0729 -0.0249,-0.0403 0.0729,-0.45028 0.21756,-0.91054 0.14465,-0.46027 0.40516,-1.3997 0.57878,-2.08773 0.3008,-1.19208 0.42426,-1.54306 0.42426,-1.20664 0,0.13549 0.0599,0.14787 0.53072,0.11007 1.01496,-0.0815 2.11485,-0.8848 2.68769,-1.96319 0.16243,-0.30577 0.31931,-0.55613 0.34881,-0.55655 z m -22.56399,0.67592 c 0.0294,0 0.17845,0.0769 0.33073,0.17105 0.25672,0.15865 0.27362,0.19719 0.23512,0.52917 -0.20242,1.74435 -1.29885,3.77155 -3.1321,5.79086 -0.64211,0.70726 -0.7891,0.81474 -0.7891,0.57826 0,-0.0698 0.0534,-0.12661 0.11885,-0.12661 0.15537,0 1.1393,-1.06504 1.53583,-1.66243 0.39918,-0.6014 0.98528,-1.85812 1.21698,-2.60966 0.21242,-0.68899 0.43046,-1.87538 0.43046,-2.34301 0,-0.18017 0.0238,-0.32763 0.0532,-0.32763 z m -13.32322,0.68472 c -0.13691,-0.007 -0.3234,0.0657 -0.34572,0.18345 -0.0166,0.0875 0.0237,0.14779 0.0982,0.14779 0.22174,0 0.39429,-0.099 0.39429,-0.22634 0,-0.0685 -0.0646,-0.10082 -0.14676,-0.1049 z m 35.15806,0.68626 c -0.0367,-0.0367 -0.21223,0.56484 -0.21291,0.72967 -2.6e-4,0.0607 -0.21,0.72587 -0.46612,1.47846 -0.25612,0.7526 -0.46399,1.38897 -0.46199,1.41387 0.011,0.13326 0.37028,-0.68636 0.5948,-1.35651 0.26055,-0.7777 0.60512,-2.20659 0.54622,-2.26549 z m -2.61689,0.0977 c 0.0101,0.002 0.0209,0.006 0.0326,0.0134 0.0466,0.0288 0.0847,0.0694 0.0847,0.0899 0,0.0205 -0.0382,0.0372 -0.0847,0.0372 -0.0466,0 -0.0842,-0.0406 -0.0842,-0.0899 0,-0.037 0.0213,-0.0558 0.0517,-0.0506 z m -32.75925,0.39429 c -0.15121,0 -0.33289,0.20547 -0.25269,0.28577 0.0322,0.0326 0.11753,0.0474 0.18913,0.0336 0.16943,-0.0326 0.22646,-0.31936 0.0636,-0.31936 z m -0.89451,0.6103 c -0.11525,-0.0384 -0.77257,0.62865 -0.77257,0.78393 0,0.0528 0.0435,0.13957 0.0971,0.19327 0.16363,0.16363 0.43528,-0.0369 0.38758,-0.28629 -0.0314,-0.16428 0.0124,-0.23434 0.20877,-0.3359 0.2463,-0.12738 0.2819,-0.28741 0.0791,-0.35501 z m 35.61591,0.66146 c -0.007,-6.4e-4 -0.0396,0.0395 -0.10439,0.1204 -0.0724,0.0904 -0.12905,0.22402 -0.12505,0.29662 0.006,0.11403 0.013,0.11437 0.0537,0.005 0.0259,-0.0699 0.0823,-0.20301 0.12506,-0.29611 0.0383,-0.0833 0.0575,-0.12494 0.0506,-0.12557 z m -33.55764,0.16071 c -0.0247,-0.002 -0.0372,0.0217 -0.0372,0.0708 0,0.13964 0.46148,0.93027 0.75138,1.28726 0.16877,0.20783 0.41601,0.55095 0.54932,0.76222 0.13331,0.21128 0.37937,0.55275 0.54673,0.75861 0.3127,0.38463 0.31128,0.38595 -0.19637,0.22635 -0.0931,-0.0293 0.0225,0.0386 0.25684,0.15037 0.48891,0.23323 0.82913,0.54705 0.42736,0.3943 -0.12649,-0.0481 -0.30928,-0.12949 -0.40618,-0.18139 -0.2417,-0.1293 -0.88546,-0.18839 -0.94826,-0.0868 -0.0871,0.14097 0.83209,0.60025 1.57355,0.78599 0.38786,0.0972 0.7626,0.20928 0.8325,0.24908 0.0699,0.0398 0.18384,0.0715 0.25374,0.0708 0.0699,-6.9e-4 0.0131,-0.0533 -0.12661,-0.1173 -0.15633,-0.0716 -0.19921,-0.11951 -0.11111,-0.12351 0.2634,-0.0126 0.24614,-0.16753 -0.0346,-0.31058 -0.15287,-0.0779 -0.33473,-0.19268 -0.40463,-0.25528 -0.0698,-0.0626 -0.27008,-0.23281 -0.44441,-0.37827 -0.34268,-0.28596 -0.9762,-1.051 -0.69712,-0.84181 0.0922,0.0691 0.39601,0.31874 0.67541,0.55449 0.2794,0.23575 0.61493,0.4742 0.74518,0.5302 0.3765,0.16189 0.38746,0.11095 0.0181,-0.0837 -0.52737,-0.27794 -2.15561,-1.96153 -2.66547,-2.75642 -0.29855,-0.46547 -0.48393,-0.70007 -0.5581,-0.70538 z m 7.11429,0.55345 c 0.005,0.002 0.0107,0.01 0.0165,0.0243 0.0235,0.0582 0.0235,0.15368 0,0.21188 -0.0235,0.0582 -0.0424,0.0105 -0.0424,-0.10594 0,-0.0873 0.0105,-0.13593 0.0258,-0.13023 z m -8.79998,0.17312 0.4005,0.47439 c 0.39204,0.46418 0.67725,0.69092 2.05207,1.63091 h 5.1e-4 c 0.37239,0.25458 0.71513,0.46567 0.76171,0.46767 0.0466,0.002 0.0174,-0.0352 -0.0651,-0.0832 -0.0824,-0.048 -0.12452,-0.12893 -0.093,-0.17983 0.0343,-0.0554 0.0183,-0.0682 -0.0403,-0.032 -0.0537,0.0332 -0.0977,0.0273 -0.0977,-0.0134 0,-0.0407 -0.12854,-0.13562 -0.28526,-0.21032 -0.15673,-0.0747 -0.62342,-0.41578 -1.03714,-0.7581 -0.41372,-0.34232 -0.94189,-0.77382 -1.17409,-0.95911 z m 34.89555,0.0558 c -0.009,0.005 -0.0207,0.0145 -0.0357,0.0289 -0.1368,0.13199 -0.36742,1.0267 -0.30592,1.18701 0.0503,0.1313 0.0619,0.13213 0.13177,0.007 0.0421,-0.0753 0.0537,-0.17401 0.0258,-0.21911 -0.045,-0.0728 0.0446,-0.51351 0.18603,-0.91674 0.0257,-0.073 0.0249,-0.10188 -0.002,-0.0873 z m -26.72757,0.0708 c 0.0466,0 0.0847,0.0382 0.0847,0.0847 0,0.0466 -0.0381,0.0847 -0.0847,0.0847 -0.0466,0 -0.0847,-0.0382 -0.0847,-0.0847 0,-0.0466 0.0381,-0.0847 0.0847,-0.0847 z m 27.91509,0.004 c 0.006,0.003 0.009,0.016 0.009,0.0393 10e-4,0.0931 -0.0476,0.32171 -0.10903,0.50798 -0.0614,0.18623 -0.11269,0.2626 -0.11369,0.1695 -10e-4,-0.0931 0.0476,-0.32171 0.10904,-0.50798 0.046,-0.13967 0.0866,-0.21789 0.10438,-0.20878 z m -37.77857,0.0806 c -0.1857,0 -0.21546,0.12661 -0.0765,0.32504 0.12117,0.173 0.45733,0.25923 0.45733,0.11731 0,-0.13231 -0.2669,-0.44235 -0.38085,-0.44235 z m 13.55524,0.19327 c 0.0815,0.0832 -0.29609,1.11593 -0.52555,1.43712 -0.15808,0.2213 -0.28783,0.44179 -0.28783,0.48989 0,0.0481 -0.0612,0.18133 -0.13643,0.29611 -0.16007,0.24429 -0.26733,0.26985 -0.25373,0.0605 0.009,-0.13728 1.16224,-2.32568 1.20354,-2.28358 z m -2.49235,0.0615 c 0.0388,0 0.0708,0.0444 0.0708,0.0987 0,0.0544 0.0257,0.073 0.0574,0.0413 0.0632,-0.0631 0.53485,0.3543 0.53485,0.47335 0,0.0406 -0.0376,0.0505 -0.0842,0.0217 -0.10881,-0.0673 -0.10866,-0.063 0.0475,0.97978 0.0725,0.48551 0.10903,1.01628 0.0811,1.17926 -0.039,0.22804 -0.0289,0.26668 0.0429,0.16898 0.0749,-0.10198 0.0827,-0.0891 0.0398,0.0636 -0.0295,0.10464 0.01,0.49832 0.0863,0.87489 0.0768,0.37656 0.12369,0.70055 0.10439,0.71985 -0.0832,0.0832 -0.42489,-1.67869 -0.45269,-2.33423 -0.0405,-0.95527 -0.17936,-1.58599 -0.39739,-1.80402 -0.17985,-0.17981 -0.26196,-0.48318 -0.13074,-0.48318 z m -8.72143,0.18707 c 0.0621,-0.005 0.3314,0.19068 0.66404,0.48576 0.20955,0.1859 0.36178,0.33903 0.33848,0.34003 -0.0574,0.003 -1.01596,-0.76292 -1.01596,-0.81132 0,-0.009 0.005,-0.0138 0.0134,-0.0145 z m -1.67742,0.26924 c -0.18021,-0.005 -0.20081,0.19402 -0.0181,0.42633 0.19516,0.24816 0.45342,0.28454 0.53382,0.0749 0.0621,-0.16187 -0.15116,-0.40358 -0.42891,-0.48628 -0.0321,-0.01 -0.0611,-0.0143 -0.0868,-0.015 z m 1.04231,0.17001 c -0.0364,-0.004 -0.0752,0.0141 -0.0971,0.0496 -0.0293,0.0474 0.006,0.0858 0.0791,0.0858 0.1487,0 0.17066,-0.0504 0.0532,-0.12299 -0.0108,-0.007 -0.023,-0.011 -0.0351,-0.0124 z m 8.18193,0.41186 c 0.0545,0.0182 0.24333,0.62024 0.41962,1.33842 0.32171,1.31061 0.4072,2.04014 0.11834,1.00976 -0.4654,-1.66009 -0.63016,-2.37888 -0.53796,-2.34818 z m 22.90662,0.66973 c 0.0226,0.0108 -0.0175,0.10645 -0.12144,0.31471 -0.0778,0.15536 -0.10857,0.33166 -0.0729,0.41496 0.05,0.11677 0.0781,0.0934 0.1447,-0.12195 0.11998,-0.38756 0.38321,-0.40418 1.10949,-0.0698 0.33236,0.15303 0.99495,0.39893 1.47226,0.54674 0.77658,0.2405 1.09728,0.42478 0.73846,0.42478 -0.0713,0 -0.15492,0.0668 -0.18552,0.14831 -0.0306,0.0815 -0.11163,0.19023 -0.17983,0.24133 -0.14265,0.10696 -0.0643,0.28784 0.12454,0.28784 0.0936,0 0.11171,0.0511 0.0682,0.19068 -0.15732,0.50458 -0.19565,0.55833 -0.37052,0.51263 -0.13508,-0.0353 -0.17415,-0.006 -0.17415,0.13333 0,0.0986 -0.0368,0.17932 -0.0817,0.17932 -0.12342,0 -0.26331,0.30876 -0.20671,0.4563 0.0274,0.0714 0.12891,0.15492 0.22531,0.18552 0.15058,0.0478 0.15644,0.0661 0.0419,0.13022 -0.0734,0.041 -0.1622,0.23671 -0.1974,0.4346 -0.0582,0.32695 -0.0757,0.47787 -0.10904,0.93224 -0.0121,0.16454 -0.29861,0.44339 -0.45527,0.44339 -0.0549,0 -0.15836,0.10454 -0.22996,0.23202 -0.1067,0.19007 -0.11055,0.26233 -0.0233,0.40205 0.0928,0.14878 0.0851,0.17053 -0.0584,0.17053 -0.21584,0 -0.30758,0.30423 -0.1695,0.56224 0.16589,0.30994 0.0125,0.39766 -0.42478,0.2434 -0.4308,-0.15198 -0.68213,-0.16457 -0.68213,-0.0346 0,0.0573 -0.0572,0.0688 -0.14779,0.0295 -0.0815,-0.0353 -0.22471,-0.0705 -0.31781,-0.0785 -0.0931,-0.008 -0.25227,-0.0594 -0.35398,-0.11421 -0.3896,-0.21007 -0.51682,-0.0335 -0.14935,0.20723 0.15602,0.1023 0.24129,0.11579 0.30799,0.0491 0.0667,-0.0667 0.16915,-0.0335 0.36897,0.11886 0.15883,0.12077 0.29865,0.17544 0.32815,0.12764 0.0586,-0.0948 0.81802,0.13332 0.91002,0.27336 0.0371,0.0564 0.10852,0.0444 0.20412,-0.0346 0.11344,-0.0936 0.15554,-0.0975 0.18294,-0.016 0.0196,0.0582 0.10527,0.10594 0.19017,0.10594 0.11307,0 0.14237,0.0459 0.11007,0.1695 -0.0563,0.21515 -0.10693,0.20991 -0.85215,-0.0832 -0.33886,-0.13327 -1.13012,-0.3868 -1.75855,-0.56379 -0.7853,-0.22118 -1.13006,-0.35487 -1.10226,-0.42737 0.0785,-0.2045 -0.14684,-0.21774 -0.30075,-0.0176 -0.24243,0.31531 -0.18897,0.13051 0.16846,-0.58239 0.40162,-0.80103 0.86783,-2.03591 1.16479,-3.08508 0.12245,-0.43263 0.27271,-0.84354 0.33331,-0.91364 0.0607,-0.0701 0.13648,-0.32831 0.16898,-0.57361 0.0325,-0.2453 0.0924,-0.46644 0.13281,-0.49144 0.0404,-0.025 0.0734,-0.1614 0.0734,-0.30334 0,-0.1992 -0.0299,-0.24653 -0.13229,-0.20723 -0.096,0.0369 -0.12115,0.0106 -0.0909,-0.0966 0.0228,-0.0812 0.0658,-0.26891 0.0956,-0.41703 0.0297,-0.14813 0.1088,-0.31502 0.1757,-0.37052 0.0582,-0.0483 0.0944,-0.0721 0.10801,-0.0656 z m -24.54993,0.0698 c 0.0412,0 0.0946,0.0764 0.11886,0.1695 0.0241,0.0931 0.038,0.16627 0.031,0.16227 -0.007,-0.004 -0.0607,-0.0256 -0.11886,-0.0491 -0.1199,-0.0484 -0.14559,-0.28267 -0.031,-0.28267 z m 12.53412,0.25374 c -0.0106,3e-5 -0.0434,0.0243 -0.10335,0.0729 -0.0782,0.0635 -0.1211,0.14939 -0.0956,0.19069 0.0257,0.0412 0.11061,0.074 0.18913,0.0734 0.1143,-10e-4 0.12008,-0.0159 0.0269,-0.0749 -0.0717,-0.0455 -0.0903,-0.11823 -0.0476,-0.18913 0.0292,-0.0486 0.041,-0.0729 0.0305,-0.0729 z m 16.33027,0.006 c 0.0119,0.002 0.015,0.0339 0.0155,0.0956 7e-4,0.0787 -0.0366,0.16653 -0.0832,0.19533 -0.10715,0.0662 -0.10715,-0.0461 0,-0.21187 0.0354,-0.0547 0.0558,-0.0814 0.0677,-0.0791 z m -2.7435,0.0171 c 0.016,-0.016 0.31066,0.0535 0.65422,0.154 0.34356,0.10054 0.81517,0.22885 1.048,0.28525 0.23284,0.0564 0.55636,0.16169 0.71934,0.23409 0.16298,0.0724 0.4202,0.15787 0.57154,0.19017 0.15134,0.0323 0.27543,0.0917 0.27543,0.13178 0,0.1896 0.003,0.19058 -2.30476,-0.61805 -0.54586,-0.19127 -0.97977,-0.36124 -0.96377,-0.37724 z m -22.70094,0.43253 c -0.009,0.009 -0.0151,0.0386 -0.017,0.0878 -0.004,0.0892 0.0163,0.13921 0.0444,0.11111 0.0284,-0.0281 0.0312,-0.10117 0.007,-0.16227 -0.0136,-0.0337 -0.0252,-0.0456 -0.0341,-0.0367 z m 24.6786,0.60565 c 0.0393,0.002 0.0933,0.009 0.15296,0.0207 l 0.21704,0.0413 -0.20567,0.22169 c -0.18086,0.19497 -0.7001,1.75415 -0.84956,2.55075 -0.0218,0.11632 -0.17245,0.64943 -0.33435,1.18494 -0.16189,0.53552 -0.36237,1.27853 -0.44597,1.65106 -0.16945,0.75537 -0.1876,0.78904 -0.39739,0.74104 -0.16696,-0.0382 -0.19447,-0.15209 -0.0568,-0.23719 0.14747,-0.0911 0.4004,-0.75191 0.66249,-1.73013 0.13419,-0.50087 0.28153,-0.9821 0.32763,-1.0697 0.046,-0.0876 0.11139,-0.33099 0.14469,-0.54054 0.0333,-0.20955 0.20906,-0.92356 0.39068,-1.58698 0.18161,-0.66342 0.33021,-1.22013 0.33021,-1.23713 0,-0.009 0.0247,-0.0118 0.0641,-0.01 z m 0.93792,0.22531 c 0.04,-0.003 0.10332,0.008 0.19999,0.0284 0.15377,0.033 0.28949,0.0689 0.30179,0.0796 0.0402,0.0351 -0.22907,0.62536 -0.30747,0.67386 -0.0421,0.026 -0.10244,0.15262 -0.13384,0.28112 -0.0313,0.1285 -0.3237,1.06198 -0.64958,2.07481 -0.32588,1.01282 -0.60892,1.84175 -0.62942,1.84175 -0.0543,0 -0.0738,0.0779 0.41755,-1.69912 0.63125,-2.28315 0.77562,-2.88444 0.74672,-3.11351 -0.0144,-0.11423 -0.0125,-0.16119 0.0543,-0.16691 z m -1.70842,0.84646 c -0.0326,0.0106 -0.0553,0.0529 -0.0553,0.1111 0,0.0776 0.0409,0.12781 0.091,0.11111 0.0501,-0.0167 0.0909,-0.0669 0.0909,-0.11111 0,-0.0443 -0.0408,-0.0939 -0.0909,-0.11058 -0.0125,-0.004 -0.0248,-0.004 -0.0357,-5.2e-4 z m -4.28863,0.0677 c -0.0466,0 -0.0847,0.0382 -0.0847,0.0847 0,0.0466 0.0381,0.0847 0.0847,0.0847 0.0466,0 0.0847,-0.0382 0.0847,-0.0847 0,-0.0466 -0.0381,-0.0847 -0.0847,-0.0847 z m 0.70229,0.0109 c 0.007,-0.001 0.0131,2.1e-4 0.0186,0.006 0.0219,0.0219 -0.0522,0.3039 -0.16485,0.62632 -0.22774,0.65215 -0.29381,0.64178 -0.0832,-0.0129 0.0738,-0.22949 0.15065,-0.46995 0.17105,-0.53485 0.0153,-0.0487 0.0385,-0.0805 0.0584,-0.0842 z m -0.90899,0.41289 c -0.15717,0 -0.18493,0.0523 -0.25683,0.48679 -0.0475,0.28704 -0.0341,0.35967 0.0651,0.35967 0.0765,0 0.16081,-0.14477 0.21911,-0.3762 0.11907,-0.47251 0.11913,-0.47026 -0.0274,-0.47026 z m -18.98954,0.11731 c 0.009,-0.009 0.0211,0.003 0.0346,0.0367 0.0241,0.0611 0.0214,0.13416 -0.007,0.16226 -0.0282,0.0281 -0.0485,-0.0219 -0.0445,-0.1111 0.002,-0.0494 0.008,-0.079 0.0165,-0.0879 z m 8.73487,0.53175 c 0.0108,0.006 0.0259,0.0452 0.0475,0.11265 0.0373,0.11642 0.071,0.27869 0.076,0.36019 0.005,0.0815 -0.0294,0.14779 -0.076,0.14779 -0.0465,0 -0.0815,-0.16177 -0.0765,-0.35967 0.004,-0.19105 0.0109,-0.27146 0.0289,-0.26096 z m 14.0596,0.70641 c -0.1278,0 -0.17677,0.26093 -0.0692,0.36846 0.0661,0.0661 0.19282,-0.10487 0.19482,-0.26252 7.1e-4,-0.0582 -0.0557,-0.10594 -0.12558,-0.10594 z m -23.58202,0.12661 0.15865,0.42426 c 0.0871,0.23338 0.23981,0.58429 0.33951,0.7798 0.0998,0.19551 0.18139,0.37439 0.18139,0.39739 0,0.023 -0.14319,0.0812 -0.31781,0.12971 -0.38825,0.1078 -0.42211,0.10884 -0.48111,0.0134 -0.0258,-0.0417 0.0114,-0.0982 0.0827,-0.12558 0.1084,-0.0416 0.1221,-0.17842 0.0832,-0.83405 z m 9.43767,0.29559 c 0.0671,0 0.14535,0.0382 0.17415,0.0847 0.0288,0.0466 -0.0261,0.0847 -0.12196,0.0847 -0.0958,0 -0.17415,-0.0382 -0.17415,-0.0847 0,-0.0466 0.0549,-0.0847 0.12196,-0.0847 z m 10.53889,0.076 c 0.0132,-0.004 0.0268,0.002 0.0413,0.0171 0.019,0.0194 -0.0189,0.14969 -0.0847,0.28939 l -0.11989,0.25373 0.0496,-0.25373 c 0.0389,-0.19879 0.074,-0.29553 0.11369,-0.30645 z m -18.82572,0.001 c 0.0106,0.004 0.0239,0.0512 0.0413,0.13539 0.0385,0.18626 0.0719,0.55561 0.0749,0.82062 0.003,0.26501 -0.033,0.50554 -0.0796,0.53434 -0.0546,0.0337 -0.0809,-0.25796 -0.0749,-0.82063 0.005,-0.47739 0.0148,-0.67839 0.0383,-0.66972 z m 22.26272,0.0961 c -0.0672,0.001 -0.14293,0.0695 -0.17673,0.20412 -0.0284,0.11343 -0.0258,0.2484 0.006,0.30024 l 5.2e-4,5.2e-4 c 0.09,0.14387 0.29662,-0.0689 0.29662,-0.30645 0,-0.13376 -0.0589,-0.19972 -0.12609,-0.19843 z m -12.83281,0.0811 c 0.0438,0 0.10298,0.0382 0.13178,0.0847 0.0288,0.0466 -0.007,0.0847 -0.0796,0.0847 -0.0726,0 -0.13177,-0.0382 -0.13177,-0.0847 0,-0.0466 0.0358,-0.0847 0.0796,-0.0847 z m -0.34778,0.0847 c 0.0388,0 0.0703,0.0567 0.0703,0.12661 0,0.0827 -0.0762,0.1233 -0.21859,0.1173 -0.1434,-0.006 -0.16748,-0.0232 -0.0703,-0.0486 0.0815,-0.0213 0.14779,-0.0736 0.14779,-0.11678 0,-0.0432 0.032,-0.0786 0.0708,-0.0786 z m -1.83503,0.33848 c 0.015,-1e-5 0.0185,2.51436 0.006,5.58777 l 5.2e-4,-5.2e-4 c -0.0195,4.87703 -0.0385,5.58829 -0.14832,5.58829 -0.0975,0 -0.12619,-0.11896 -0.12919,-0.52916 -0.002,-0.29104 -0.0389,-1.48167 -0.0822,-2.64584 -0.10555,-2.83939 -0.0175,-7.27526 0.14159,-7.14323 0.0693,0.058 0.11317,0.062 0.11317,0.0103 0,-0.0466 -0.0572,-0.13217 -0.12712,-0.19017 -0.0699,-0.058 -0.12602,-0.14852 -0.12402,-0.20102 0.003,-0.0894 0.28633,-0.47643 0.34933,-0.47646 z m 2.4076,0.80615 c 0.004,0.0105 0.008,0.0455 0.0119,0.10697 0.0172,0.24603 0.0169,0.62683 -5.2e-4,0.84646 -0.0174,0.21963 -0.0312,0.0187 -0.031,-0.447 1.5e-4,-0.34922 0.008,-0.53785 0.0196,-0.50643 z m -9.13329,0.11627 0.0873,0.34365 c 0.049,0.19314 0.0539,0.34365 0.0114,0.34365 -0.0417,0 -0.0754,0.0592 -0.0754,0.13177 0,0.0727 0.0381,0.10839 0.0847,0.0796 0.0466,-0.0287 0.0847,-0.0142 0.0847,0.032 0,0.1366 -0.47812,0.43615 -0.97358,0.61029 -0.28271,0.0994 -0.68741,0.16227 -1.04335,0.16227 h -0.58136 l -0.10335,-0.31781 c -0.057,-0.17463 -0.12134,-0.35911 -0.14314,-0.41031 -0.0259,-0.0609 0.19208,-0.1109 0.63045,-0.1447 0.77203,-0.0595 1.46315,-0.29514 1.79265,-0.61081 z m 6.49728,0.13281 c -0.0153,-0.006 -0.0258,0.0429 -0.0258,0.13023 0,0.11643 0.0189,0.16413 0.0424,0.10593 0.0235,-0.0582 0.0235,-0.15367 0,-0.21187 -0.006,-0.0145 -0.0114,-0.0224 -0.0165,-0.0243 z m -7.57938,0.22583 c 0.0504,-0.001 0.0894,0.0162 0.0894,0.0584 0,0.0445 -0.0784,0.10161 -0.17415,0.12661 -0.11075,0.029 -0.16208,0.009 -0.14108,-0.0537 0.0253,-0.0761 0.14176,-0.1294 0.22583,-0.13126 z m 0.8387,0.0992 c -0.006,-0.004 -0.0568,0.0192 -0.15657,0.0667 -0.11642,0.0555 -0.22762,0.11477 -0.24702,0.13177 -0.11619,0.10166 0.15917,0.007 0.29404,-0.10077 0.0775,-0.0621 0.1158,-0.0936 0.10955,-0.0977 z m -2.58227,0.002 c 0.0189,10e-4 0.0457,0.0149 0.077,0.0408 0.0588,0.0488 0.25874,0.1046 0.44442,0.1235 v -5.1e-4 l 0.33796,0.0346 -0.38809,0.014 c -0.3872,0.0142 -0.50126,-0.0263 -0.50126,-0.17931 0,-0.0236 0.0111,-0.0345 0.03,-0.0331 z m 2.04174,0.23668 c -0.0432,0 -0.13477,0.0249 -0.25115,0.0749 -0.1116,0.048 -0.12607,0.0745 -0.0424,0.0775 0.0698,0.003 0.18435,-0.0324 0.25425,-0.0775 0.0774,-0.05 0.0824,-0.0749 0.0393,-0.0749 z m 19.04173,0.032 c -0.0113,0.001 -0.0205,0.005 -0.0263,0.0103 -0.0233,0.0233 0.013,0.0763 0.0801,0.11782 0.0671,0.0411 0.14104,0.0564 0.16434,0.0331 0.0232,-0.0233 -0.0129,-0.0763 -0.0801,-0.11782 -0.0503,-0.0308 -0.10419,-0.047 -0.13798,-0.0434 z m -19.59622,0.13798 c -0.0294,-10e-4 -0.063,0.004 -0.0935,0.0165 v 5.2e-4 c -0.0675,0.0271 -0.0474,0.0472 0.0512,0.0512 0.0892,0.004 0.1392,-0.0163 0.1111,-0.0444 -0.0141,-0.0142 -0.0393,-0.0225 -0.0687,-0.0238 z m -0.42633,0.0853 c -0.046,-5.6e-4 -0.0952,0.004 -0.13643,0.015 -0.0824,0.0215 -0.0358,0.0399 0.10387,0.0419 0.13967,0.002 0.20717,-0.0156 0.14987,-0.0388 -0.0287,-0.0115 -0.0713,-0.0175 -0.11731,-0.0181 z m 1.49138,0.077 c -0.0466,3.3e-4 -0.17968,0.0784 -0.2961,0.17363 -0.1406,0.115 -0.15485,0.14389 -0.0424,0.0858 0.27617,-0.14272 0.42908,-0.26001 0.33848,-0.25942 z m 0.53744,0.1018 0.0522,0.20929 c 0.029,0.11527 0.0112,0.2595 -0.0393,0.3204 -0.0661,0.0798 -0.0652,0.11931 0.003,0.14211 0.0542,0.0181 0.0134,0.10325 -0.0956,0.19895 -0.11484,0.101 -0.16249,0.11701 -0.11989,0.0403 0.0388,-0.0699 -0.0294,-0.0361 -0.15193,0.0755 -0.1225,0.11154 -0.19912,0.24135 -0.17002,0.28835 0.029,0.047 0.0124,0.0606 -0.0372,0.03 -0.0496,-0.0303 -0.15413,-0.0309 -0.23203,-10e-4 -0.1101,0.0422 -0.11702,0.0697 -0.0315,0.12247 0.0783,0.0483 0.0375,0.0959 -0.14108,0.16485 l -5.2e-4,-5.2e-4 c -0.28626,0.11053 -0.71797,0.17679 -0.84336,0.12919 -0.0466,-0.0177 -0.18832,-0.0549 -0.31471,-0.0827 -0.18121,-0.0399 -0.24914,-0.12321 -0.32194,-0.39377 -0.0509,-0.18871 -0.11104,-0.39184 -0.13384,-0.45114 -0.0314,-0.0819 0.0698,-0.0984 0.42168,-0.0692 0.61623,0.0511 1.24398,-0.10976 1.74511,-0.447 z m 17.35553,0.11111 c 0.13194,-0.0132 0.12711,0.0791 -0.0279,0.20774 -0.0698,0.058 -0.12712,0.19664 -0.12712,0.30851 0,0.15856 0.0564,0.21486 0.2558,0.25476 0.14067,0.0282 0.27617,0.0846 0.30127,0.12506 0.0251,0.0406 0.015,0.0696 -0.0227,0.0636 -0.0377,-0.006 -0.27191,-0.0473 -0.52038,-0.0925 -0.43387,-0.079 -0.44932,-0.0912 -0.39532,-0.30748 0.0689,-0.27596 0.2537,-0.49025 0.4718,-0.54725 0.0244,-0.006 0.0457,-0.0105 0.0646,-0.0124 z m -18.81901,0.12247 c -0.0206,0 -0.0611,0.0382 -0.0899,0.0848 -0.0288,0.0466 -0.0116,0.0847 0.0377,0.0847 0.0494,0 0.0894,-0.0382 0.0894,-0.0847 0,-0.0466 -0.0167,-0.0848 -0.0372,-0.0848 z m -0.7953,0.0305 c -0.0422,-0.002 -0.0761,0.003 -0.0925,0.0196 -0.0239,0.0239 0.0121,0.0792 0.0806,0.12247 v -5.2e-4 c 0.15845,0.1006 0.33642,0.10434 0.33642,0.007 0,-0.0644 -0.19797,-0.14193 -0.32453,-0.14883 z m 24.6016,0.42271 c 0.006,-0.003 0.009,0.001 0.009,0.0129 2.4e-4,0.0466 -0.0509,0.21787 -0.11369,0.38086 -0.0627,0.16333 -0.11579,0.2394 -0.11679,0.1695 -10e-4,-0.0698 0.0497,-0.24116 0.11369,-0.38086 0.048,-0.1048 0.0896,-0.1741 0.10749,-0.18242 z m -22.21415,0.11576 0.19224,0.71055 c 0.21527,0.79572 0.24418,1.02832 0.0729,0.58343 -0.23901,-0.62064 -0.10908,-0.082 0.38396,1.5906 0.28107,0.95355 0.49836,1.74646 0.48266,1.76216 -0.0157,0.0157 -0.1755,-0.39904 -0.35502,-0.92139 -0.17952,-0.52236 -0.38072,-1.01382 -0.44752,-1.09192 -0.067,-0.0782 -0.10096,-0.21131 -0.076,-0.29611 0.0703,-0.23872 -0.13105,-0.63327 -0.27647,-0.54157 -0.1013,0.064 -0.10204,0.11657 -0.004,0.35295 0.0633,0.15278 0.12171,0.33762 0.12971,0.41032 0.008,0.0727 0.13343,0.54784 0.27905,1.05626 0.14563,0.50842 0.2469,0.9427 0.2248,0.9648 -0.0221,0.0222 -0.0582,-0.0131 -0.0801,-0.078 -0.0219,-0.0649 -0.14221,-0.42225 -0.26717,-0.79478 -0.37963,-1.13172 -0.90904,-2.46025 -0.94154,-2.36265 -0.0169,0.0506 0.14404,0.92157 0.3576,1.93528 h -5.2e-4 c 0.21355,1.01372 0.37492,1.85647 0.35812,1.87327 -0.052,0.052 -0.64471,-2.25371 -0.7767,-3.02152 -0.0689,-0.40077 -0.13699,-0.76604 -0.15089,-0.81184 -0.0139,-0.0458 0.10085,-0.18966 0.25476,-0.31987 0.15387,-0.13022 0.26221,-0.28268 0.24081,-0.33848 -0.0214,-0.0558 0.0598,-0.2274 0.18035,-0.38138 z m 16.30547,0.27802 c 0.0332,0 0.47639,0.15042 0.98495,0.33434 1.04364,0.37741 1.02253,0.42961 -0.0491,0.12144 -0.39582,-0.11382 -0.80026,-0.19331 -0.89866,-0.17621 -0.13863,0.0241 -0.16999,-0.004 -0.13849,-0.12403 0.0223,-0.0855 0.0681,-0.15554 0.10129,-0.15554 z m 1.77095,0.0155 c 0.0405,-0.0171 0.41591,0.0438 1.10794,0.19069 0.96423,0.20467 1.32293,0.20499 1.6552,0.001 0.13342,-0.0819 0.23181,-0.0818 0.46353,-5.2e-4 l 0.29404,0.10284 -0.27078,0.0543 c -0.19645,0.0393 -0.28553,0.11271 -0.32453,0.2682 -0.0614,0.24466 -0.11742,0.25187 -0.58549,0.0734 -0.18626,-0.071 -0.83382,-0.25652 -1.43919,-0.41186 -0.64679,-0.16597 -0.94124,-0.26094 -0.90072,-0.27802 z m -18.28984,0.49248 c -0.0988,0 -0.089,0.2622 0.0217,0.57981 0.09,0.25802 0.24547,0.36664 0.24547,0.17105 0,-0.19397 -0.19807,-0.75086 -0.26717,-0.75086 z m 16.91369,0.0289 c 0.0101,0.002 0.0214,0.006 0.0331,0.0134 0.0466,0.0288 0.0848,0.0694 0.0848,0.0899 0,0.0205 -0.0382,0.0372 -0.0848,0.0372 -0.0466,0 -0.0847,-0.0406 -0.0847,-0.0899 0,-0.037 0.0213,-0.0558 0.0517,-0.0506 z m -19.05258,0.0894 c 0.009,-0.003 0.0188,-0.002 0.03,0.005 0.0436,0.0269 0.0737,0.12484 0.0667,0.21704 -0.0143,0.18962 -0.0128,0.18771 -0.0894,0.11111 -0.0764,-0.0764 -0.07,-0.31253 -0.007,-0.33331 z m 20.96358,0.20257 c 0.0694,-0.008 0.36902,0.0557 0.72554,0.15503 0.71705,0.1997 2.4958,0.5395 2.8236,0.5395 0.0937,0 0.16123,-0.0589 0.16123,-0.14108 0,-0.0776 0.0224,-0.11813 0.0501,-0.0904 0.0274,0.0277 0.0246,0.16772 -0.007,0.31057 -0.0535,0.24299 -0.12872,0.3157 -0.22634,0.21808 -0.0229,-0.0229 -0.51492,-0.13723 -1.09347,-0.25373 -1.08266,-0.218 -2.44895,-0.62536 -2.44895,-0.73019 0,-0.004 0.005,-0.007 0.015,-0.008 z m -9.71982,0.0496 c 0.0309,10e-4 0.0527,0.035 0.0527,0.0894 0,0.1487 -0.0509,0.17065 -0.12351,0.0532 -0.0268,-0.0433 -0.0101,-0.10299 0.0372,-0.13229 0.0119,-0.007 0.0233,-0.0107 0.0336,-0.0103 z m 6.55929,0.077 c 0.006,0.004 -0.0321,0.0356 -0.10956,0.0977 -0.0904,0.0725 -0.20161,0.13178 -0.24701,0.13178 -0.10757,0 -0.0592,-0.0389 0.19999,-0.16227 0.0998,-0.0475 0.15033,-0.0713 0.15658,-0.0672 z m 1.61695,0.0599 c 0.14125,0 0.51212,0.19388 0.51212,0.26768 0,0.0893 -0.15529,0.0832 -0.40205,-0.016 -0.18862,-0.0758 -0.26558,-0.25166 -0.11007,-0.25166 z m -2.19986,0.25425 c 0.048,0 0.0873,0.10115 0.0873,0.22479 0,0.22446 4.6e-4,0.22461 0.19069,0.0636 l 0.19017,-0.16123 -0.16123,0.19017 c -0.15298,0.18066 -0.4523,0.27725 -0.35089,0.11317 0.0263,-0.0426 0.002,-0.0927 -0.0527,-0.1111 -0.11753,-0.0392 -0.0327,-0.31936 0.0966,-0.31936 z m -16.26568,0.0227 c 0.0777,-0.0134 0.0972,0.06 0.0972,0.30696 0,0.42577 -0.10969,0.45033 -0.23203,0.0517 -0.0501,-0.16299 -0.0787,-0.29662 -0.0636,-0.29662 0.0151,0 0.088,-0.0229 0.16174,-0.0512 0.0136,-0.005 0.0256,-0.009 0.0367,-0.0109 z m 11.80497,0.26252 c 0.009,-0.009 0.0206,0.003 0.0341,0.0367 h 5.2e-4 c 0.0241,0.0611 0.0209,0.13417 -0.007,0.16227 -0.0282,0.0281 -0.0484,-0.0218 -0.0444,-0.11111 0.002,-0.0494 0.008,-0.079 0.017,-0.0879 z m 6.00997,0.0176 c 0.0178,0.001 0.0387,0.005 0.062,0.0114 0.0932,0.0244 0.1695,0.0587 0.1695,0.0765 0,0.0668 -0.24586,0.0298 -0.29146,-0.0439 -0.0196,-0.0319 0.006,-0.0482 0.0599,-0.0439 z m -0.73587,0.20206 c 0.15489,-0.001 0.45597,0.0717 0.9188,0.21859 0.77275,0.24523 2.97359,0.84659 4.22352,1.15393 0.28493,0.0701 0.31992,0.10596 0.29662,0.30748 -0.0149,0.1287 0.0286,0.27304 0.10025,0.33124 0.22351,0.18152 -0.1264,0.12456 -1.65106,-0.26768 -2.53138,-0.65122 -3.53542,-1.0393 -3.92896,-1.51825 -0.12274,-0.14936 -0.11407,-0.22418 0.0408,-0.22531 z m -0.76327,0.0878 c 0.0205,0 0.0372,0.0382 0.0372,0.0847 0,0.0466 -0.0401,0.0847 -0.0894,0.0847 -0.0493,0 -0.0665,-0.0381 -0.0377,-0.0847 0.0288,-0.0466 0.0694,-0.0847 0.0899,-0.0847 z m -0.12712,0.42323 c 0.0493,0 0.066,0.0382 0.0372,0.0847 -0.0288,0.0466 -0.0689,0.0847 -0.0894,0.0847 -0.0205,0 -0.0372,-0.0381 -0.0372,-0.0847 0,-0.0466 0.0401,-0.0847 0.0894,-0.0847 z m 0.75706,0.003 c 0.0698,0 0.18435,0.0371 0.25425,0.0822 0.11289,0.0731 0.11289,0.0822 0,0.0822 -0.0699,0 -0.18435,-0.0371 -0.25425,-0.0822 -0.11289,-0.0731 -0.11289,-0.0822 0,-0.0822 z m -5.12527,0.12041 c 0.005,0.002 0.0107,0.01 0.0165,0.0243 0.0235,0.0582 0.0235,0.15368 0,0.21188 -0.0235,0.0582 -0.0429,0.0105 -0.0429,-0.10594 0,-0.0873 0.011,-0.13593 0.0263,-0.13022 z m 4.74441,0.0253 c 0.13834,-0.0149 0.3785,0.0193 0.38034,0.0729 -10e-4,0.0178 -0.11657,0.0326 -0.25838,0.0326 -0.14248,0 -0.23884,-0.0326 -0.21394,-0.0729 0.0105,-0.017 0.0457,-0.0276 0.092,-0.0326 z m -0.47749,0.29455 c 0.004,0.004 0.005,0.0111 0.005,0.0227 -0.009,0.16038 -0.15003,0.43021 -0.15503,0.29611 -0.003,-0.0699 0.0324,-0.18383 0.0775,-0.25373 0.0338,-0.0524 0.0621,-0.0761 0.0729,-0.0651 z m 7.67447,0.009 c 0.0413,-0.0147 0.0765,0.0462 0.15865,0.20515 0.0756,0.14626 0.13746,0.30612 0.13746,0.35502 0,0.10245 -0.0289,0.10181 -0.40308,-0.006 -0.20561,-0.0593 -0.25348,-0.10614 -0.18758,-0.18294 0.0486,-0.0568 0.13955,-0.17676 0.20205,-0.26716 0.0407,-0.0589 0.0677,-0.0951 0.0925,-0.10387 z m -0.9741,0.23306 c 0.11642,-0.003 0.26858,0.0324 0.33848,0.0775 0.10486,0.0674 0.0974,0.081 -0.0424,0.077 -0.0931,-0.002 -0.24538,-0.037 -0.33848,-0.077 -0.15511,-0.0666 -0.15148,-0.0735 0.0424,-0.0775 z m 0.15968,0.32246 c 0.0163,-0.002 0.0367,0.008 0.0594,0.0305 0.0275,0.0277 0.0356,0.11929 0.0186,0.20412 -0.0296,0.14784 -0.034,0.14741 -0.094,-0.005 -0.0479,-0.12196 -0.033,-0.22435 0.016,-0.22944 z m -6.37739,0.0935 c 0.0205,0 0.0372,0.0382 0.0372,0.0847 0,0.0466 -0.0406,0.0847 -0.0899,0.0847 -0.0493,0 -0.066,-0.0382 -0.0372,-0.0847 0.0288,-0.0466 0.0694,-0.0847 0.0899,-0.0847 z m 6.80165,0.0796 c 0.0177,-0.002 0.0384,0.006 0.06,0.0279 0.0281,0.0281 0.0351,0.0993 0.0155,0.15813 -0.0287,0.0861 -0.049,0.0858 -0.10232,-5.2e-4 -0.0529,-0.0857 -0.0261,-0.18003 0.0269,-0.18551 z m 0.24702,0.0119 c 0.0162,-0.002 0.0407,0.002 0.0734,0.008 0.0779,0.015 0.16992,0.13187 0.20412,0.25993 0.0825,0.30852 -0.0142,0.29483 -0.19792,-0.0279 -0.10214,-0.17948 -0.12819,-0.23459 -0.0796,-0.2403 z m -0.45269,0.16227 c 0.0217,0 0.0799,0.0764 0.12971,0.16949 0.0723,0.13513 0.0645,0.1695 -0.0393,0.1695 -0.0736,0 -0.13023,-0.0737 -0.13023,-0.1695 0,-0.0931 0.0182,-0.16949 0.0398,-0.16949 z m -0.26923,0.12454 c 0.0346,0.002 0.0709,0.0356 0.091,0.0878 0.0295,0.0768 5e-5,0.1266 -0.0754,0.1266 -0.1369,0 -0.16813,-0.13229 -0.0486,-0.20619 0.0104,-0.006 0.0215,-0.009 0.0331,-0.008 z m -4.60954,0.0878 c 0.0163,-3.9e-4 0.0357,0.003 0.0579,0.0119 0.0996,0.0382 0.10652,0.0766 0.0315,0.16692 -0.13053,0.15719 -0.16071,0.14776 -0.16071,-0.0496 0,-0.0863 0.0225,-0.12803 0.0713,-0.12919 z m 0.61082,0.21135 c 0.0493,0 0.066,0.0376 0.0372,0.0842 -0.0288,0.0466 -0.0689,0.0847 -0.0894,0.0847 -0.0205,0 -0.0372,-0.0382 -0.0372,-0.0847 0,-0.0466 0.0401,-0.0842 0.0894,-0.0842 z m 3.50779,0.0274 c 0.13614,-0.0149 0.88907,0.20818 0.99116,0.30024 0.0324,0.0292 -0.0124,0.20545 -0.0992,0.39171 -0.1463,0.31398 -0.15833,0.32232 -0.16433,0.1111 -0.004,-0.12531 -0.0493,-0.25387 -0.10077,-0.28577 -0.0654,-0.0405 -0.0597,-0.0792 0.0196,-0.12816 0.0816,-0.0504 0.0253,-0.10692 -0.19998,-0.20102 -0.17237,-0.072 -0.35865,-0.13074 -0.41445,-0.13074 -0.0555,0 -0.0786,-0.0232 -0.0506,-0.0512 0.003,-0.003 0.01,-0.005 0.0186,-0.006 z m -6.01824,0.0791 c 0.0121,-0.012 0.006,0.2922 -0.0134,0.67644 -0.026,0.50669 -0.12798,0.98469 -0.37,1.73995 -0.18354,0.57274 -0.40778,1.52662 -0.49868,2.11976 -0.0909,0.59314 -0.28342,1.420227 -0.42788,1.837617 -0.34035,0.983529 -0.36757,1.108489 -0.25632,1.177189 0.0509,0.03149 0.0925,0.131292 0.0925,0.221692 0,0.180769 -0.0367,0.189744 -0.31574,0.07751 l -0.18914,-0.07596 0.1664,-0.388607 c 0.16833,-0.392699 0.33957,-1.215325 0.51108,-2.454631 0.0562,-0.40583 0.14476,-0.71676 0.22066,-0.77566 0.0719,-0.0558 0.21255,-0.5135 0.32556,-1.05834 0.19251,-0.92811 0.71039,-3.05236 0.75499,-3.09696 z m 7.68481,0.108 c 0.0344,-0.001 0.0327,0.0372 0.009,0.12661 -0.0582,0.22252 -0.16376,0.28147 -0.22376,0.12505 -0.0277,-0.0722 0.0191,-0.1611 0.11007,-0.2098 0.0501,-0.0268 0.0837,-0.0412 0.10439,-0.0419 z m -3.35587,0.0455 c 0.0592,-0.003 0.14421,0.0128 0.262,0.0444 0.17932,0.0481 0.17942,0.0502 0.0269,0.44338 -0.0843,0.21724 -0.19378,0.52845 -0.24288,0.69143 -0.0848,0.28177 -0.087,0.28346 -0.0522,0.0331 0.1399,-1.00697 0.14673,-1.13378 0.0625,-1.13378 -0.0492,0 -0.10686,0.0668 -0.12816,0.14831 -0.0291,0.11153 -0.0416,0.10098 -0.0486,-0.0424 -0.006,-0.12221 0.0218,-0.1795 0.12041,-0.18449 z m -18.1405,0.19586 c 0.009,-0.009 0.0206,0.003 0.0341,0.0367 h 5.2e-4 c 0.0241,0.0611 0.0209,0.13416 -0.007,0.16226 -0.0282,0.0281 -0.0484,-0.0219 -0.0444,-0.1111 0.002,-0.0494 0.008,-0.079 0.0171,-0.0879 z m 19.71973,0.13746 c 0.0787,-2e-4 0.16469,0.0339 0.19069,0.076 0.026,0.0422 -0.1665,0.69925 -0.42788,1.46038 -0.26139,0.76112 -0.58728,1.59338 -0.72399,1.8495 -0.31001,0.5808 -0.32612,0.64994 0.632,-2.73007 0.13765,-0.48557 0.22316,-0.65543 0.32918,-0.65577 z m -13.31081,0.39222 c 0.01,0.003 0.0206,0.0102 0.0326,0.0202 0.13227,0.10978 0.19524,1.22448 0.27854,4.941296 h 5.1e-4 l 0.0527,2.349727 h -0.26044 c -0.25035,0 -0.43963,-0.124651 -0.27854,-0.183451 0.0665,-0.02426 0.13555,-4.850602 0.0786,-5.489592 -0.011,-0.11642 -0.0116,-0.54957 -0.003,-0.96273 0.0118,-0.54536 0.0301,-0.69872 0.0987,-0.67541 z m -6.22701,0.0563 c 0.0218,0.005 0.0575,0.0837 0.0847,0.19224 0.0311,0.12408 0.0402,0.24148 0.0202,0.26148 -0.02,0.02 -0.0619,-0.0651 -0.093,-0.18914 -0.0311,-0.12408 -0.0401,-0.242 -0.0202,-0.262 0.002,-0.002 0.005,-0.003 0.008,-0.003 z m 17.05425,0.10128 -0.002,0.16899 h -10e-4 c -0.001,0.0931 -0.033,0.26495 -0.0703,0.38137 l -0.0677,0.21136 -0.002,-0.21136 c -0.001,-0.11642 0.0303,-0.28827 0.0703,-0.38137 z m -16.88527,0.493 c 0.0247,0.006 0.0628,0.0988 0.0909,0.22686 0.0321,0.14636 0.0393,0.28521 0.016,0.30851 -0.0233,0.0233 -0.0687,-0.0774 -0.10077,-0.22376 -0.0321,-0.14636 -0.0393,-0.28521 -0.016,-0.30851 0.003,-0.003 0.006,-0.004 0.01,-0.003 z m 6.60735,0.0956 c 0.005,0.002 0.0107,0.01 0.0165,0.0243 0.0235,0.0582 0.0235,0.15367 0,0.21187 -0.0235,0.0582 -0.0424,0.0105 -0.0424,-0.10594 0,-0.0873 0.0105,-0.13593 0.0258,-0.13022 z m -1.64331,0.063 c 0.005,-0.004 0.0112,0.004 0.0176,0.0248 0.0424,0.1397 0.0772,1.06741 0.0775,2.06189 3e-4,0.99448 -0.0315,1.84069 -0.0708,1.87999 -0.0393,0.0392 -0.0745,-0.88898 -0.0775,-2.06241 -0.004,-1.22746 0.0147,-1.87377 0.0532,-1.90428 z m -4.7222,0.0155 c 0.009,-0.009 0.0206,0.003 0.0341,0.0367 0.0241,0.0611 0.0214,0.13416 -0.007,0.16226 -0.0282,0.0281 -0.0484,-0.0218 -0.0444,-0.1111 0.002,-0.0493 0.008,-0.079 0.017,-0.0879 z m 20.20239,0.49506 c 0.004,0.004 0.007,0.0111 0.007,0.0227 0,0.0466 -0.0371,0.14197 -0.0822,0.21187 -0.0452,0.0698 -0.0822,0.089 -0.0822,0.0424 0,-0.0466 0.0371,-0.14207 0.0822,-0.21187 0.0339,-0.0523 0.063,-0.0761 0.0755,-0.0651 z m -20.30264,0.0672 c 0.006,-5.3e-4 0.0298,0.0355 0.076,0.10748 0.0534,0.0832 0.0782,0.19724 0.0553,0.25374 -0.03,0.0743 -0.0431,0.0755 -0.0481,0.004 -0.004,-0.0544 -0.0285,-0.16843 -0.0553,-0.25373 -0.0232,-0.0738 -0.0342,-0.1111 -0.0279,-0.11162 z m 0.26923,0.0315 c 0.0194,-0.0194 0.1956,0.52247 0.3912,1.20354 0.19558,0.68113 0.33451,1.25919 0.30902,1.28468 -0.0255,0.0258 -0.0465,0.0252 -0.0465,-0.002 0,-0.0268 -0.15512,-0.58937 -0.34468,-1.25005 -0.18956,-0.66068 -0.32843,-1.21722 -0.30903,-1.23662 z m 19.76211,0.57878 c 0.0149,-0.008 0.0238,-5.7e-4 0.0238,0.0227 0,0.0466 -0.0371,0.14208 -0.0822,0.21188 -0.0452,0.0698 -0.0817,0.0885 -0.0817,0.0418 0,-0.0466 0.0366,-0.14155 0.0817,-0.21135 0.0226,-0.0349 0.0435,-0.0574 0.0584,-0.0651 z m -6.18102,0.006 c 0.0142,0.003 0.0227,0.0142 0.0212,0.0331 -0.003,0.0377 -0.0391,0.14513 -0.0791,0.23823 -0.0697,0.16323 -0.0726,0.16231 -0.0786,-0.0165 -0.003,-0.10201 0.0319,-0.20891 0.0786,-0.23771 0.0232,-0.0144 0.0436,-0.02 0.0579,-0.017 z m -2.44275,0.22841 c 0.018,0.0539 -0.0733,0.50504 -0.20309,1.00201 -0.12976,0.49698 -0.2907,0.9797 -0.3576,1.0728 l -0.12144,0.16898 0.0408,-0.16898 c 0.18257,-0.75388 0.6151,-2.15351 0.6413,-2.07481 z m -11.14712,0.45269 c 0.0288,0.004 0.16172,0.40629 0.34882,1.08933 0.16854,0.61533 0.29221,1.13302 0.27491,1.15032 -0.0379,0.0379 -0.42307,-1.2136 -0.5519,-1.79265 -0.0688,-0.30908 -0.0891,-0.44962 -0.0718,-0.447 z m 7.60574,0.6475 c 0.0551,0 0.0657,0.30701 0.0305,0.86817 -0.03,0.4773 -0.068,0.883383 -0.0848,0.902783 -0.0168,0.0194 -0.031,-0.370943 -0.031,-0.867643 0,-0.54864 0.0336,-0.90331 0.0853,-0.90331 z m 5.66477,0.12041 c 0.002,10e-6 0.002,0.002 0.003,0.007 0.002,0.0931 -0.0884,0.64237 -0.20154,1.22008 -0.1481,0.756059 -0.25444,1.099341 -0.38034,1.225251 -0.0962,0.096 -0.17518,0.13565 -0.17518,0.08785 0,-0.171382 0.70667,-2.540811 0.75448,-2.540411 z m -6.12263,0.0103 c 0.004,0.008 0.008,0.0412 0.0119,0.10232 0.0171,0.24448 0.0171,0.64437 0,0.88884 -0.0171,0.24448 -0.031,0.0445 -0.031,-0.44442 0,-0.36668 0.008,-0.57069 0.0191,-0.54674 z m 7.96179,0.41238 c 0.0235,0.008 0.0232,0.0939 -0.0165,0.25218 -0.0306,0.12186 -0.0875,0.22169 -0.12661,0.22169 -0.0391,0 -0.0304,-0.11631 0.0191,-0.25838 0.0535,-0.15359 0.10053,-0.22348 0.12402,-0.21549 z m 3.74603,0.65267 c 0.002,7.8e-4 0.004,0.004 0.004,0.0103 0.003,0.0343 -0.18851,0.758217 -0.42633,1.608686 -0.42098,1.505989 -0.6374,2.121934 -0.52813,1.503785 0.10731,-0.607106 0.88381,-3.146981 0.95033,-3.122811 z m -8.13852,0.766882 c 0.007,-0.0026 0.0117,0.006 0.0129,0.02791 0.003,0.04657 -0.0484,0.27515 -0.11317,0.50798 -0.0705,0.253569 -0.11818,0.338146 -0.11885,0.211356 -9.5e-4,-0.177213 0.16974,-0.729248 0.21911,-0.747241 z m 3.40547,0.07028 c 0.0475,0 0.0601,0.116809 0.03,0.274919 -0.0734,0.385869 -0.11265,0.398526 -0.11265,0.03566 0,-0.170739 0.0373,-0.310575 0.0827,-0.310575 z m -9.79578,0.370003 c 0.009,-0.0089 0.0206,0.0029 0.0341,0.03669 h 5.2e-4 c 0.0241,0.06112 0.0209,0.134164 -0.007,0.162264 -0.0282,0.02813 -0.0485,-0.02191 -0.0445,-0.111105 0.002,-0.04935 0.008,-0.07895 0.0171,-0.08785 z m -3.28042,0.428398 c 0.0154,0.0075 0.0565,0.09883 0.12299,0.259932 0.096,0.23283 0.16346,0.537779 0.14986,0.677478 -0.0207,0.21213 -0.0425,0.177347 -0.13229,-0.210323 -0.12032,-0.519362 -0.1662,-0.739668 -0.14056,-0.727087 z m 3.46594,0.304374 c 0.0105,0.0023 0.025,0.04563 0.045,0.124024 0.0356,0.139699 0.0684,0.358732 0.0744,0.486792 0.005,0.128059 -0.0278,0.23306 -0.0744,0.23306 -0.0477,0 -0.0809,-0.212002 -0.0749,-0.486792 0.005,-0.250418 0.0124,-0.360833 0.03,-0.357084 z m 3.07733,0.102319 -0.0253,0.349333 c -0.0195,0.26691 -0.0639,0.355754 -0.18656,0.374654 -0.2105,0.03241 -0.2806,-0.04688 -0.2806,-0.316776 0,-0.16663 0.0611,-0.244193 0.2465,-0.314193 z m 11.16727,0.173116 c -0.0134,-0.0038 -0.0331,0.0015 -0.0599,0.01809 -0.0466,0.02878 -0.0844,0.116637 -0.0837,0.195337 0.001,0.12342 0.013,0.12547 0.0837,0.01602 0.0804,-0.12432 0.10013,-0.218074 0.0599,-0.229444 z m -14.4172,0.29714 c 0.007,-0.0035 0.0142,0.0094 0.0222,0.04031 0.0216,0.08238 0.0201,0.196948 -0.003,0.254248 -0.0232,0.05732 -0.0413,-0.01016 -0.0393,-0.149862 0.001,-0.08733 0.009,-0.138791 0.0202,-0.144694 z m 14.03583,0.306958 c -0.006,7.02e-4 -0.0116,0.003 -0.0176,0.0067 -0.0466,0.02878 -0.0847,0.147647 -0.0847,0.264066 0,0.11954 0.0369,0.188764 0.0847,0.159164 0.0466,-0.02878 0.0847,-0.147647 0.0847,-0.264067 0,-0.104597 -0.0281,-0.170793 -0.0672,-0.165881 z m -2.76004,0.08217 c 0.0101,-4.43e-4 0.0214,0.0026 0.0331,0.0098 0.0466,0.02878 0.0847,0.08798 0.0847,0.131775 0,0.0439 -0.0382,0.0801 -0.0847,0.0801 -0.0466,0 -0.0848,-0.05969 -0.0848,-0.132291 0,-0.05452 0.0213,-0.08807 0.0517,-0.0894 z m -0.32917,0.56844 c 0.0967,8.4e-4 0.32464,0.03809 0.7431,0.117306 0.37173,0.07034 0.48247,0.111864 0.29663,0.111104 -0.32989,-0.0013 -1.01478,-0.122836 -1.08418,-0.192236 -0.0243,-0.02427 -0.0136,-0.03668 0.0444,-0.03617 z m 2.88612,0.07648 c -0.0114,0 -0.0317,0.02831 -0.0682,0.08475 -0.0452,0.06985 -0.0822,0.184348 -0.0822,0.254248 0,0.11289 0.009,0.11289 0.0822,0 0.0452,-0.06985 0.0817,-0.184348 0.0817,-0.254248 0,-0.05644 -0.002,-0.08475 -0.0134,-0.08475 z m -13.61519,0.01034 c -0.0384,0 -0.0763,0.0058 -0.10542,0.01757 -0.0582,0.0235 -0.011,0.04237 0.10542,0.04237 0.11643,0 0.16414,-0.01887 0.10594,-0.04237 -0.0291,-0.01175 -0.0676,-0.01757 -0.10594,-0.01757 z m 12.96252,0.802018 c 0.0264,0.0097 0.048,0.05712 0.0532,0.12454 0.01,0.13228 -0.039,0.161195 -0.25735,0.150895 -0.25802,-0.0121 -0.25965,-0.01416 -0.0357,-0.04806 0.12882,-0.01947 0.21394,-0.06832 0.18914,-0.10852 -0.0248,-0.04017 -0.0145,-0.09194 0.0232,-0.115239 0.009,-0.0058 0.0186,-0.0069 0.0274,-0.0036 z"
       inkscape:export-filename="..\front\assets\makeup_icon.svg"
       inkscape:export-xdpi="325.83685"
       inkscape:export-ydpi="325.83685" /></g></svg>
