<?xml version="1.0" encoding="UTF-8" standalone="no"?>
<!-- Created with Inkscape (http://www.inkscape.org/) -->

<svg
   width="81.519226mm"
   height="86.305923mm"
   viewBox="0 0 81.519226 86.305923"
   version="1.1"
   id="svg5"
   xml:space="preserve"
   xmlns="http://www.w3.org/2000/svg"
   xmlns:svg="http://www.w3.org/2000/svg"><defs
     id="defs2" /><g
     id="layer1"
     transform="translate(-77.550768,-85.115247)"><path
       style="fill:#000000;stroke-width:1"
       d="m 85.110291,170.95365 c -0.579073,-0.57908 -0.518872,-1.09426 0.179538,-1.53642 0.417859,-0.26454 1.738895,-0.41185 4.431771,-0.49418 3.293441,-0.10069 4.135697,-0.21948 5.950585,-0.83932 6.643615,-2.26896 11.023215,-7.73044 12.003015,-14.96809 l 0.23249,-1.71732 -2.14773,-2.2865 c -3.25647,-3.46687 -5.976875,-8.42742 -6.821999,-12.4396 -0.257371,-1.22186 -0.461481,-1.57875 -1.127297,-1.97111 -3.338042,-1.96708 -5.443231,-5.69546 -5.443231,-9.64018 0,-2.78336 1.528652,-5.01928 3.734703,-5.46266 l 0.691996,-0.13909 0.143039,-5.19956 c 0.18523,-6.73326 0.774605,-8.73341 3.637149,-12.34333 4.57137,-5.764877 10.02786,-8.575861 17.53899,-9.035434 10.45393,-0.63963 21.07395,5.638033 24.0136,14.194814 0.51191,1.49008 0.60756,2.43188 0.71614,7.05108 l 0.12532,5.3313 0.80504,0.161 c 1.2223,0.24446 2.57152,1.41791 3.16005,2.74838 0.82297,1.86046 0.58592,5.24559 -0.52491,7.49596 -0.82794,1.67726 -2.56007,3.6173 -4.26848,4.78082 -0.7621,0.51903 -0.96752,0.89785 -1.38275,2.55003 -1.02556,4.08061 -4.045,9.32479 -7.16574,12.44554 l -1.61386,1.61386 0.16205,1.73544 c 0.19824,2.12285 1.39885,5.69444 2.59665,7.72452 1.49099,2.52702 4.10269,4.89991 6.91223,6.2802 2.9762,1.46218 5.24677,1.95638 9.21241,2.00513 3.08503,0.0379 4.21262,0.35031 4.21262,1.16706 0,0.93063 -0.76975,1.20346 -3.39233,1.20237 -8.49092,-0.004 -14.6804,-3.01186 -18.56615,-9.02387 -1.2621,-1.95271 -2.5183,-5.12318 -2.96691,-7.488 -0.18188,-0.95883 -0.42601,-1.74332 -0.54249,-1.74332 -0.11649,0 -0.89923,0.34702 -1.73943,0.77115 -2.72051,1.37331 -4.35179,1.72695 -7.98227,1.73043 -3.62442,0.004 -5.59567,-0.45826 -8.40061,-1.96777 -0.76403,-0.41118 -1.43347,-0.66972 -1.48764,-0.57455 -0.0542,0.0952 -0.18065,0.73964 -0.28106,1.43217 -0.55802,3.84847 -2.70256,8.05004 -5.56949,10.91169 -2.44524,2.44074 -4.269068,3.59414 -7.34313,4.64383 -3.769545,1.28719 -10.763708,1.8217 -11.691879,0.89353 z m 39.271729,-18.1252 c 4.64312,-1.36712 9.04356,-5.31384 11.95389,-10.72135 1.39137,-2.5852 2.59591,-5.88041 2.60224,-7.11879 0.005,-1.02261 0.14935,-1.20685 1.59867,-2.04363 1.55296,-0.89662 3.31963,-2.81993 4.03366,-4.39128 0.40115,-0.8828 0.56489,-1.78065 0.57174,-3.13498 0.0118,-2.33308 -0.54454,-3.27579 -2.13243,-3.61346 -2.37881,-0.50585 -2.34688,-0.45075 -2.42973,-4.19269 l -0.0738,-3.33468 -2.23929,-2.1498 c -3.53795,-3.39658 -6.88365,-5.34748 -11.69309,-6.81831 -2.12111,-0.64869 -2.70547,-0.71077 -6.68975,-0.71077 -4.00329,0 -4.56326,0.0602 -6.74687,0.72514 -4.63365,1.41105 -8.2333,3.53523 -11.70782,6.90885 l -2.18281,2.11942 v 3.22594 c 0,3.03366 -0.03505,3.25049 -0.588039,3.63782 -0.323419,0.22653 -0.888966,0.41232 -1.256771,0.41286 -0.367803,5.3e-4 -1.0492,0.23298 -1.514216,0.51651 -1.186053,0.72319 -1.589614,2.15883 -1.198316,4.26292 0.549979,2.95736 2.106107,5.11197 4.790374,6.63272 0.719538,0.40766 1.147758,0.85571 1.229878,1.28686 0.98245,5.15799 3.25229,9.65837 6.72329,13.33015 3.19043,3.37499 6.50508,5.16807 10.73151,5.80528 1.36428,0.20569 4.42436,-0.10669 6.21771,-0.63473 z m -6.14784,-7.42777 c -2.81603,-0.38048 -6.24093,-2.57592 -5.60102,-3.59039 0.62103,-0.98454 1.08478,-1.01564 2.28558,-0.15329 3.12605,2.24495 7.18062,2.15699 10.22656,-0.22186 0.86871,-0.67845 1.57257,-0.61734 1.9302,0.16758 0.36297,0.79663 -0.10067,1.41952 -1.79624,2.41319 -2.19558,1.2867 -4.46677,1.73312 -7.04508,1.38477 z m -11.35609,-16.51612 c -0.70191,-0.21605 -1.77295,-0.86894 -2.48908,-1.51729 -1.08572,-0.98296 -1.23262,-1.23525 -1.07801,-1.85128 0.24422,-0.97305 1.41631,-0.98203 2.30563,-0.0177 0.85816,0.93058 2.08578,1.42111 3.55649,1.42111 1.36797,0 2.34376,-0.4251 3.28262,-1.43007 0.8417,-0.90097 1.78635,-0.89972 2.19761,0.003 0.29215,0.64119 0.22956,0.76943 -0.89343,1.83046 -1.90182,1.7969 -4.32881,2.34771 -6.88183,1.56185 z m 21.79594,0.0273 c -1.99898,-0.62421 -3.96403,-2.48317 -3.60737,-3.4126 0.0921,-0.24004 0.46056,-0.51 0.81878,-0.59991 0.49912,-0.12527 0.84778,0.026 1.49217,0.64752 1.01135,0.97541 1.98202,1.3726 3.35441,1.3726 1.38171,0 2.28162,-0.37758 3.47975,-1.46002 0.81153,-0.73317 1.12205,-0.86604 1.60732,-0.68774 2.35498,0.86524 -1.77638,4.56995 -5.03085,4.51131 -0.54025,-0.01 -1.49164,-0.17676 -2.11421,-0.37116 z m -15.97346,-10.69814 c -1.46556,-1.15281 -4.29955,-1.31943 -7.26452,-0.42711 -0.66756,0.20091 -1.38181,0.30079 -1.58722,0.22197 -0.50365,-0.19327 -0.7625,-1.33047 -0.40178,-1.76511 0.88738,-1.06923 7.52864,-1.51097 9.32372,-0.62017 1.18228,0.5867 2.08625,1.40774 2.08625,1.89487 0,0.46285 -0.72079,1.19922 -1.17385,1.19922 -0.18826,0 -0.63043,-0.22665 -0.9826,-0.50367 z m 12.61362,-0.0187 c -0.44192,-0.48832 -0.44434,-0.56575 -0.0371,-1.18722 1.14405,-1.74604 5.0824,-2.47387 8.74391,-1.61593 2.10787,0.49391 2.53188,0.76669 2.53188,1.62883 0,0.96348 -0.76274,1.20814 -2.273,0.72911 -0.71438,-0.22659 -2.25137,-0.429 -3.41554,-0.4498 -1.87073,-0.0334 -2.26049,0.0467 -3.35441,0.68979 -1.47624,0.86781 -1.58673,0.87814 -2.19571,0.20522 z M 104.8893,106.60443 c 4.62345,-2.90835 9.53098,-4.3497 14.86251,-4.36515 1.74625,-0.005 3.53559,0.0727 3.97632,0.17279 0.67185,0.15258 0.9382,0.0482 1.64849,-0.64627 1.67804,-1.6406 1.64795,-3.87435 -0.0747,-5.544003 l -0.94241,-0.91341 -3.80131,-0.09829 c -7.52817,-0.194662 -11.66003,1.358585 -16.41683,6.171403 -2.51519,2.54482 -3.88228,4.69332 -4.526975,7.11455 -0.710917,2.66992 -0.57423,2.77659 1.342915,1.04806 0.94089,-0.84832 2.71028,-2.17118 3.93198,-2.93968 z m 35.22919,1.60227 c -1.05713,-3.90535 -5.13474,-8.237728 -10.13235,-10.76542 l -1.40733,-0.7118 0.17741,1.183063 c 0.24026,1.602113 -0.0568,3.144597 -0.82313,4.273807 -0.4481,0.66032 -0.53944,0.97221 -0.30807,1.05199 5.04631,1.73996 9.24779,4.18106 11.83825,6.87813 0.88355,0.91992 0.93023,0.93666 1.01739,0.36494 0.0503,-0.32957 -0.11273,-1.35319 -0.36217,-2.27471 z m -52.196057,58.08272 c -0.450104,-0.4501 -0.450104,-11.87948 0,-12.32958 0.472618,-0.47262 1.480445,-0.38388 1.769264,0.15579 0.35946,0.67166 0.386265,11.29626 0.03018,11.96161 -0.314246,0.58718 -1.307344,0.70428 -1.79944,0.21218 z m 64.417227,-0.65264 c -0.097,-0.097 -0.17639,-0.5952 -0.17639,-1.10709 0,-1.36436 -0.96605,-3.14585 -2.12,-3.90951 -0.62892,-0.4162 -1.54594,-0.71675 -2.48149,-0.8133 -1.86212,-0.19219 -2.00021,-0.75569 -0.22716,-0.92694 2.75925,-0.26651 4.37378,-1.76848 4.75601,-4.42442 0.22056,-1.53263 0.8653,-2.20226 0.86786,-0.90138 0.004,1.98575 1.11852,3.92936 2.73179,4.76362 0.44998,0.23269 1.41807,0.49631 2.1513,0.58581 1.66174,0.20283 1.63254,0.63912 -0.0572,0.85462 -2.92558,0.37311 -4.82008,2.46449 -4.82589,5.32738 -0.001,0.7005 -0.24901,0.92104 -0.61883,0.55121 z M 94.621154,155.42827 c -0.314589,-2.03255 -0.690298,-2.82364 -1.786723,-3.76214 -1.023808,-0.87634 -1.675072,-1.11976 -3.497032,-1.30705 -1.292839,-0.1329 -1.049928,-0.59862 0.401915,-0.77056 2.810938,-0.33292 4.460253,-2.02165 4.888608,-5.00546 0.220173,-1.53366 0.52251,-1.43075 0.751933,0.25594 0.361659,2.65889 2.07369,4.37092 4.732575,4.73258 1.69388,0.2304 1.80375,0.55637 0.26377,0.78255 -1.788807,0.26272 -2.464047,0.55834 -3.451954,1.51128 -0.85131,0.82118 -1.646396,2.78857 -1.646396,4.07391 0,1.04362 -0.473049,0.6755 -0.656696,-0.51105 z m 51.456696,-2.66395 c 0,-1.19985 -0.79245,-3.25478 -1.51513,-3.92899 -1.02918,-0.96012 -1.82124,-1.32251 -3.30371,-1.51152 -1.69824,-0.21652 -1.68485,-0.64449 0.0279,-0.89098 1.58622,-0.22827 2.56935,-0.68347 3.37524,-1.56275 0.63153,-0.68905 1.41571,-2.79651 1.41571,-3.8047 0,-1.17822 0.5071,-0.68115 0.68676,0.67317 0.36032,2.71627 2.17048,4.4389 4.94613,4.70698 1.63468,0.15788 1.49638,0.6617 -0.24081,0.87724 -2.80676,0.34826 -4.28383,1.8522 -4.71248,4.79821 -0.18688,1.28441 -0.6796,1.75083 -0.6796,0.64334 z m -62.272471,-5.65556 c -0.09306,-0.0931 -0.169196,-0.5699 -0.169196,-1.05965 0,-1.09488 -0.624017,-2.64176 -1.401691,-3.47466 -0.829577,-0.88849 -1.754153,-1.31167 -3.319433,-1.51931 -0.750361,-0.0995 -1.364292,-0.2774 -1.364292,-0.39526 0,-0.11786 0.565547,-0.29657 1.25677,-0.39715 2.946014,-0.42864 4.449953,-1.90571 4.798211,-4.71247 0.217631,-1.75399 0.706589,-1.85767 0.903902,-0.19166 0.335557,2.83326 1.769559,4.33738 4.569663,4.79311 2.325773,0.37853 2.276925,0.47989 -0.506637,1.05134 -2.467107,0.50648 -4.142743,2.63596 -4.142743,5.26479 0,0.56495 -0.345731,0.91974 -0.624554,0.64092 z m 66.371991,-5.96799 c -0.0645,-0.1819 -0.16301,-6.10526 -0.21898,-13.16302 -0.0955,-12.04574 -0.13755,-12.99393 -0.68539,-15.46931 -0.6,-2.71109 -1.99821,-6.75198 -3.07761,-8.89446 -2.09952,-4.16728 -6.33181,-9.07007 -9.8911,-11.458098 -9.78828,-6.567221 -23.35249,-6.519019 -32.95198,0.117102 -2.26429,1.565306 -5.900368,5.236387 -7.455338,7.527118 -1.532966,2.258308 -3.334244,5.951068 -4.279193,8.772668 -1.479299,4.41715 -1.629818,6.02849 -1.630752,17.45744 -7.93e-4,9.60265 -0.0357,10.39864 -0.480287,10.94768 -0.592974,0.73229 -1.561452,0.52201 -1.790012,-0.38865 -0.08471,-0.33751 -0.103272,-5.4195 -0.04125,-11.2933 0.102786,-9.73388 0.163468,-10.9069 0.68525,-13.24584 2.805779,-12.577211 10.665055,-21.946123 21.336912,-25.435374 3.11237,-1.017614 6.38581,-1.499473 10.18646,-1.499473 5.31754,0 9.58761,0.906576 13.74296,2.917764 9.44706,4.572376 16.06027,13.872963 18.02147,25.344793 0.45905,2.68514 0.51474,4.33327 0.51474,15.23478 0,9.15471 -0.0797,12.30363 -0.3175,12.54141 -0.41678,0.41678 -1.51911,0.40804 -1.6684,-0.0132 z"
       id="path302" /></g></svg>
