<?xml version="1.0" encoding="UTF-8" standalone="no"?>
<!-- Created with Inkscape (http://www.inkscape.org/) -->

<svg
   width="59.03125mm"
   height="58.899071mm"
   viewBox="0 0 59.03125 58.899071"
   version="1.1"
   id="svg5"
   xml:space="preserve"
   xmlns:inkscape="http://www.inkscape.org/namespaces/inkscape"
   xmlns:sodipodi="http://sodipodi.sourceforge.net/DTD/sodipodi-0.dtd"
   xmlns="http://www.w3.org/2000/svg"
   xmlns:svg="http://www.w3.org/2000/svg"><sodipodi:namedview
     id="namedview7"
     pagecolor="#ffffff"
     bordercolor="#666666"
     borderopacity="1.0"
     inkscape:showpageshadow="2"
     inkscape:pageopacity="0.0"
     inkscape:pagecheckerboard="0"
     inkscape:deskcolor="#d1d1d1"
     inkscape:document-units="mm"
     showgrid="false" /><defs
     id="defs2" /><g
     inkscape:label="Camada 1"
     inkscape:groupmode="layer"
     id="layer1"
     transform="translate(-129.92321,-67.502401)"><path
       style="fill:#f7abc2;fill-opacity:1;stroke-width:1"
       d="m 129.9232,125.02674 c 0,-3.11591 1.6766,-8.9656 3.63426,-12.67995 3.84849,-7.30193 11.44502,-12.844789 20.22047,-14.753979 2.32572,-0.50599 3.66702,-0.94478 2.98067,-0.9751 -4.24341,-0.18746 -9.86625,-5.30365 -11.31828,-10.29845 -2.0493,-7.04935 0.88454,-13.78708 7.42189,-17.04477 4.74148,-2.36278 8.32079,-2.36278 13.06227,0 11.01231,5.48766 10.76552,20.5317 -0.42932,26.17034 -1.22054,0.61476 -2.78072,1.14256 -3.46707,1.17288 -0.68635,0.0303 0.69837,0.47797 3.07715,0.99478 11.63053,2.526819 20.62374,11.288499 22.97859,22.386989 1.51103,7.12153 4.84587,6.37996 -28.69049,6.37996 -28.76001,0 -29.47014,-0.0326 -29.47014,-1.3527 z"
       id="path6734" /></g></svg>
